<svg xmlns="http://www.w3.org/2000/svg" width="981" height="324.287" viewBox="0 0 981 324.287">
  <g id="bg_sec4_02" transform="translate(464 349.287)">
    <rect id="長方形_212" data-name="長方形 212" width="981" height="324" transform="translate(-464 -349)" fill="none"/>
    <path id="パス_585" data-name="パス 585" d="M-331.913-85.226q4.759-24.443-26.39-37.854l-35.475-14.709q-74.626-33.528-70.949-91.282a80.578,80.578,0,0,1,18.17-47.047q16.656-20.657,46.074-32.122t64.244-11.032q46.723.865,75.167,27.255t28.012,70.733H-306.6q.649-18.17-7.679-29.094t-27.363-11.356q-18.6-.433-32.879,8.652T-391.4-228.638q-4.11,21.631,32.122,35.475T-306.6-169.37q51.7,30.932,48.453,83.5-1.73,27.255-17.521,47.8t-43.8,31.8Q-347.487,4.975-382.312,4.542a151.7,151.7,0,0,1-47.372-8,104.235,104.235,0,0,1-37.421-22.063q-31.581-29.2-30.283-76.79l74.194.216q-1.3,24.227,9.3,36.664T-378.2-53q18.6,0,31.04-8.544A35.473,35.473,0,0,0-331.913-85.226Zm320.128-48.237H-127.51L-140.7-58.4H-3.781L-13.948,0h-210.9l54.51-314.945H40.995l-10.167,58.62h-137.14l-11.681,66.407H-2.051ZM110.854-58.4H239.125L228.958,0H26.71L81.22-314.945h74.194Zm243.987,0H483.112L472.946,0H270.7l54.51-314.945H399.4Z" transform="translate(33.44 -30)" fill="#e8e8e8" opacity="0.697"/>
  </g>
</svg>
