<svg xmlns="http://www.w3.org/2000/svg" xmlns:xlink="http://www.w3.org/1999/xlink" width="560.192" height="73.344" viewBox="0 0 560.192 73.344">
  <defs>
    <linearGradient id="linear-gradient" x1="0.104" y1="0.5" x2="0.943" y2="0.218" gradientUnits="objectBoundingBox">
      <stop offset="0" stop-color="#ff7b1e"/>
      <stop offset="1" stop-color="#f14624"/>
    </linearGradient>
  </defs>
  <g id="パス_584" data-name="パス 584" transform="translate(3.552 56.544)" stroke-linejoin="round" fill="url(#linear-gradient)">
    <path d="M 356.416015625 14.8000020980835 C 351.7819213867188 14.8000020980835 348.1945190429688 14.10921669006348 345.44873046875 12.68821620941162 C 342.3551635742188 11.0872163772583 340.7200012207031 8.514430999755859 340.7200012207031 5.248002052307129 C 340.7200012207031 4.098597049713135 340.9214172363281 3.012832641601562 341.321044921875 2.000002145767212 L 339.8399963378906 2.000002145767212 L 329.4080200195312 2.000002145767212 L 327.4080200195312 2.000002145767212 L 325.6960144042969 2.000002145767212 L 316.3520202636719 2.000002145767212 L 314.6027221679688 2.000002145767212 L 314.38525390625 0.3812944293022156 C 314.3638610839844 0.4014748632907867 314.3424072265625 0.4215563237667084 314.3208618164062 0.4415735900402069 C 312.75 1.900359272956848 310.7633056640625 2.640002250671387 308.416015625 2.640002250671387 C 306.2279357910156 2.640002250671387 304.2914428710938 2.084145069122314 302.6603698730469 0.9879307150840759 C 301.0639343261719 -0.08506926149129868 299.8414306640625 -1.495069265365601 299.0267944335938 -3.202997922897339 C 298.6576843261719 -3.97687029838562 298.3739013671875 -4.770862579345703 298.176513671875 -5.5801682472229 C 297.7650451660156 -3.945639610290527 297.1399230957031 -2.514776945114136 296.3041381835938 -1.29899787902832 C 295.4145812988281 -0.005140690598636866 294.3128051757812 0.9867878556251526 293.029296875 1.649216413497925 C 291.7555847167969 2.306644916534424 290.30029296875 2.640002250671387 288.7040100097656 2.640002250671387 C 286.7406005859375 2.640002250671387 284.7757568359375 2.102739572525024 282.8320007324219 1.037937521934509 L 282.8320007324219 12.16000175476074 L 282.8320007324219 14.16000175476074 L 280.8320007324219 14.16000175476074 L 270.3999938964844 14.16000175476074 L 268.3999938964844 14.16000175476074 L 268.3999938964844 12.16000175476074 L 268.3999938964844 -36.99199676513672 L 268.3999938964844 -38.99199676513672 L 270.3999938964844 -38.99199676513672 L 280.8320007324219 -38.99199676513672 L 282.8320007324219 -38.99199676513672 L 282.8320007324219 -38.13384246826172 C 283.2154235839844 -38.3286247253418 283.6060485839844 -38.50447082519531 284.0030212402344 -38.66085433959961 C 285.6388549804688 -39.30528259277344 287.2636413574219 -39.63199615478516 288.8320007324219 -39.63199615478516 C 290.4844970703125 -39.63199615478516 291.9683532714844 -39.30728530883789 293.2422180175781 -38.66692733764648 C 294.5563049316406 -38.00642776489258 295.6502075195312 -37.01242828369141 296.4937133789062 -35.71271133422852 C 297.9967956542969 -33.39643859863281 298.7618408203125 -30.3968505859375 298.7679748535156 -26.79600715637207 C 299.2272033691406 -30.7295970916748 300.5575561523438 -33.78574752807617 302.7350769042969 -35.89913940429688 C 305.2870788574219 -38.37606811523438 309.0286560058594 -39.63199615478516 313.8560180664062 -39.63199615478516 C 318.0364990234375 -39.63199615478516 321.3242797851562 -38.39907073974609 323.6279296875 -35.96749877929688 C 325.9026489257812 -33.56642532348633 327.0559997558594 -30.37978363037109 327.0559997558594 -26.49599838256836 L 327.0559997558594 -9.215997695922852 C 327.0559997558594 -6.466964244842529 327.1741638183594 -4.085641384124756 327.4080200195312 -2.107847213745117 L 327.4080200195312 -36.99199676513672 L 327.4080200195312 -38.99199676513672 L 329.4080200195312 -38.99199676513672 L 339.8399963378906 -38.99199676513672 L 341.8399963378906 -38.99199676513672 L 341.8399963378906 -36.99199676513672 L 341.8399963378906 -25.99033546447754 C 342.0590515136719 -30.09445190429688 343.4012451171875 -33.36973190307617 345.8380737304688 -35.73821258544922 C 348.4962768554688 -38.32192611694336 352.2705688476562 -39.63199615478516 357.0559997558594 -39.63199615478516 C 360.4187927246094 -39.63199615478516 363.23583984375 -38.92947769165039 365.4619445800781 -37.53974151611328 C 366.5193786621094 -38.66157913208008 367.8453674316406 -39.61544036865234 369.4248657226562 -40.388427734375 L 369.4345092773438 -40.39313888549805 L 369.4441528320312 -40.39771270751953 L 370.7881469726562 -41.03771209716797 L 372.5777893066406 -41.88992691040039 L 373.4460144042969 -40.10792541503906 L 373.9896545410156 -38.99199676513672 L 374.5280151367188 -38.99199676513672 L 384.9599914550781 -38.99199676513672 L 386.9599914550781 -38.99199676513672 L 386.9599914550781 -37.48019027709961 C 389.1986694335938 -38.91044998168945 391.50634765625 -39.63199615478516 393.8560180664062 -39.63199615478516 C 395.2574462890625 -39.63199615478516 396.5322875976562 -39.3658561706543 397.6452331542969 -38.84085464477539 C 398.7940673828125 -38.29899597167969 399.7736511230469 -37.48271179199219 400.5568542480469 -36.41471099853516 C 401.9815673828125 -34.47192764282227 402.7040100097656 -31.9744987487793 402.7040100097656 -28.99199867248535 L 402.7040100097656 2.166748117815587e-06 L 402.7040100097656 2.000002145767212 L 400.7040100097656 2.000002145767212 L 390.3359985351562 2.000002145767212 L 388.3359985351562 2.000002145767212 L 388.3359985351562 2.166748117815587e-06 L 388.3359985351562 -27.51999855041504 C 388.3359985351562 -27.88815879821777 388.3034362792969 -28.12698745727539 388.2721862792969 -28.27136611938477 C 388.2571716308594 -28.27177047729492 388.2411193847656 -28.27199745178223 388.2239990234375 -28.27199745178223 C 388.1393432617188 -28.27199745178223 387.7567749023438 -28.2441291809082 386.9599914550781 -27.81180381774902 L 386.9599914550781 2.166748117815587e-06 L 386.9599914550781 2.000002145767212 L 384.9599914550781 2.000002145767212 L 374.5280151367188 2.000002145767212 L 374.2238159179688 2.000002145767212 C 374.21435546875 4.062699794769287 373.8383178710938 5.917488098144531 373.1058044433594 7.514002323150635 C 372.3397827148438 9.183573722839355 371.1789245605469 10.59128761291504 369.655517578125 11.698073387146 C 366.7825012207031 13.78535938262939 362.4517822265625 14.8000020980835 356.416015625 14.8000020980835 Z M 353.2816467285156 0.7964879870414734 C 352.86279296875 1.197206854820251 352.4640197753906 1.703016877174377 352.4640197753906 2.176002264022827 C 352.4640197753906 2.336787939071655 352.4640197753906 2.463716506958008 352.9561462402344 2.677287817001343 C 353.4473571777344 2.890430688858032 354.7245178222656 3.248002052307129 357.760009765625 3.248002052307129 C 360.5896606445312 3.248002052307129 361.9606628417969 2.965430736541748 362.6125183105469 2.72843074798584 C 362.872802734375 2.633787870407104 362.9953002929688 2.539002180099487 363.0266418457031 2.497930765151978 C 363.0408020019531 2.479430675506592 363.0559997558594 2.410859346389771 363.0559997558594 2.304002285003662 C 363.0559997558594 2.243521928787231 363.0508728027344 2.205392360687256 363.0468444824219 2.18488597869873 C 363.0317687988281 2.173378467559814 363.0040588378906 2.154583692550659 362.9583740234375 2.131145000457764 C 362.703857421875 2.000430822372437 361.8367309570312 1.668859362602234 359.2890014648438 1.414073586463928 L 359.2862243652344 1.413787841796875 L 359.2835083007812 1.413502216339111 L 353.2816467285156 0.7964879870414734 Z M 341.8399963378906 -5.153350830078125 L 341.8399963378906 2.166748117815587e-06 L 341.8399963378906 0.9164552092552185 C 342.0570983886719 0.5344098210334778 342.3054809570312 0.1645576953887939 342.5849914550781 -0.1926406919956207 C 343.0605773925781 -0.8003110289573669 343.6290588378906 -1.370914101600647 344.287353515625 -1.90220844745636 C 343.8555297851562 -2.227984189987183 343.4695129394531 -2.586092472076416 343.1307983398438 -2.975640773773193 C 342.566162109375 -3.624973773956299 342.1352844238281 -4.352602958679199 341.8399963378906 -5.153350830078125 Z M 359.7329406738281 -10.12279319763184 L 363.2302856445312 -9.731640815734863 C 366.8249206542969 -9.337640762329102 369.5855102539062 -8.109711647033691 371.4309997558594 -6.082283496856689 C 371.8416137695312 -5.631192207336426 372.2073669433594 -5.147889614105225 372.5280151367188 -4.63317346572876 L 372.5280151367188 -31.44759178161621 C 372.4098815917969 -31.39629554748535 372.2882995605469 -31.34323120117188 372.1633605957031 -31.28842735290527 C 371.6944580078125 -31.08275985717773 371.2569274902344 -30.88195610046387 370.852783203125 -30.68701362609863 C 371.4767761230469 -28.84403800964355 371.7919921875 -26.83966445922852 371.7919921875 -24.70399856567383 C 371.7919921875 -20.13121223449707 370.5144348144531 -16.49714088439941 367.9947814941406 -13.9026403427124 C 365.9603271484375 -11.80777168273926 363.1885986328125 -10.54147720336914 359.7329406738281 -10.12279319763184 Z M 282.8320007324219 -8.239116668701172 C 283.1084594726562 -8.134001731872559 283.3616638183594 -8.079998016357422 283.5840148925781 -8.079998016357422 C 283.8432922363281 -8.079998016357422 283.8667297363281 -8.120283126831055 283.9364318847656 -8.239711761474609 C 284.1978759765625 -8.687854766845703 284.3359985351562 -9.379497528076172 284.3359985351562 -10.23999786376953 L 284.3359985351562 -27.51999855041504 C 284.3359985351562 -28.2627124786377 284.2135925292969 -28.84749794006348 283.9720764160156 -29.25799751281738 C 283.9408874511719 -29.31106948852539 283.9182739257812 -29.33717346191406 283.9083557128906 -29.34737014770508 C 283.8931274414062 -29.35151672363281 283.8525695800781 -29.35999870300293 283.7760009765625 -29.35999870300293 C 283.4670104980469 -29.35999870300293 283.1545104980469 -29.2699031829834 282.8320007324219 -29.08665657043457 L 282.8320007324219 -8.239116668701172 Z M 313.072021484375 -14.47659587860107 C 312.7716369628906 -14.19313049316406 312.5062255859375 -13.90874576568604 312.2763671875 -13.62392616271973 C 311.5843505859375 -12.76649761199951 311.2480163574219 -11.72242641448975 311.2480163574219 -10.43199825286865 C 311.2480163574219 -9.633069038391113 311.3869934082031 -9.01385498046875 311.6499328613281 -8.641354560852051 C 311.7778015136719 -8.460283279418945 311.8648071289062 -8.399997711181641 312.1280212402344 -8.399997711181641 C 312.449951171875 -8.399997711181641 312.7842102050781 -8.653306007385254 313.072021484375 -8.962059020996094 L 313.072021484375 -14.47659587860107 Z M 341.8399963378906 -23.55730819702148 L 341.8399963378906 -11.04223442077637 C 342.0454406738281 -11.64886951446533 342.31640625 -12.22428512573242 342.6522216796875 -12.76592636108398 C 343.1554870605469 -13.57762718200684 343.814208984375 -14.40228271484375 344.6463928222656 -15.26010894775391 C 342.9608459472656 -17.43500137329102 342.0202026367188 -20.21395874023438 341.8399963378906 -23.55730819702148 Z M 298.7680053710938 -22.71106719970703 L 298.7680053710938 -13.72089958190918 C 299.1870727539062 -14.79643440246582 299.7474060058594 -15.77949523925781 300.4471435546875 -16.66449737548828 C 302.0724487304688 -18.71999740600586 304.0517883300781 -20.34592628479004 306.330078125 -21.49706840515137 C 306.8809509277344 -21.77540397644043 307.4747314453125 -22.05727767944336 308.1104431152344 -22.34230804443359 L 300.5291442871094 -22.64156913757324 L 298.7680053710938 -22.71106719970703 Z M 356.658935546875 -29.36546325683594 C 356.6595153808594 -29.36516952514648 356.6351013183594 -29.33695793151855 356.6030883789062 -29.25871276855469 C 356.4746398925781 -28.94485473632812 356.1759948730469 -27.87892723083496 356.1759948730469 -24.76799774169922 C 356.1759948730469 -21.76535415649414 356.4787902832031 -20.68421173095703 356.6089477539062 -20.35878372192383 C 356.6480712890625 -20.26092720031738 356.6780090332031 -20.23042678833008 356.6782836914062 -20.23014068603516 C 356.6979370117188 -20.21756935119629 356.8152160644531 -20.17599868774414 357.0559997558594 -20.17599868774414 C 357.3469543457031 -20.17599868774414 357.4469299316406 -20.23094177246094 357.4530639648438 -20.23453140258789 C 357.4524536132812 -20.23480796813965 357.4768981933594 -20.26301383972168 357.5089416503906 -20.34128379821777 C 357.6373596191406 -20.6551399230957 357.9360046386719 -21.7148551940918 357.9360046386719 -24.76799774169922 C 357.9360046386719 -27.82842636108398 357.6332092285156 -28.9157829284668 357.5030822753906 -29.24121284484863 C 357.4639282226562 -29.33906936645508 357.4340209960938 -29.36956977844238 357.4337158203125 -29.3698558807373 C 357.4140930175781 -29.38242721557617 357.2967834472656 -29.42399787902832 357.0559997558594 -29.42399787902832 C 356.7650756835938 -29.42399787902832 356.6651000976562 -29.36906051635742 356.658935546875 -29.36546325683594 Z M 312.7682189941406 -27.88280296325684 C 312.7041015625 -27.72451972961426 312.6152648925781 -27.41072463989258 312.5899353027344 -26.85321235656738 L 312.5877075195312 -26.80371284484863 L 312.5830078125 -26.75435447692871 L 312.3269958496094 -24.06635475158691 L 312.3256225585938 -24.05187606811523 C 312.57080078125 -24.14291572570801 312.8194274902344 -24.23403358459473 313.072021484375 -24.32543182373047 L 313.072021484375 -26.62399864196777 C 313.072021484375 -27.30476570129395 312.9921569824219 -27.68969345092773 312.9289855957031 -27.88763046264648 C 312.9186096191406 -27.88786697387695 312.9076232910156 -27.88799858093262 312.89599609375 -27.88799858093262 C 312.8441772460938 -27.88799858093262 312.8019104003906 -27.88581657409668 312.7682189941406 -27.88280296325684 Z M 554.0640258789062 3.152002096176147 L 552.0640258789062 3.152002096176147 L 542.7840576171875 3.152002096176147 L 540.7840576171875 3.152002096176147 L 540.7840576171875 1.152002215385437 L 540.7840576171875 -7.615997791290283 L 540.7840576171875 -9.615998268127441 L 542.7840576171875 -9.615998268127441 L 552.0640258789062 -9.615998268127441 L 554.0640258789062 -9.615998268127441 L 554.0640258789062 -7.615997791290283 L 554.0640258789062 1.152002215385437 L 554.0640258789062 3.152002096176147 Z M 176.8960113525391 2.768002271652222 C 170.6517181396484 2.768002271652222 166.0885772705078 1.018502116203308 163.3331451416016 -2.431997776031494 C 161.9852142333984 -4.119997978210449 160.9662170410156 -6.187997817993164 160.3045043945312 -8.578426361083984 C 159.6671447753906 -10.88085460662842 159.3440093994141 -13.55006885528564 159.3440093994141 -16.51199722290039 L 159.3440093994141 -35.19999694824219 C 159.3440093994141 -38.22235488891602 159.66357421875 -40.93149948120117 160.2939300537109 -43.25221252441406 C 160.950439453125 -45.66928482055664 161.9632873535156 -47.74178314208984 163.3045043945312 -49.41213989257812 C 164.7044372558594 -51.15578460693359 166.6030120849609 -52.47292709350586 168.9472961425781 -53.32714080810547 C 171.1633605957031 -54.13457107543945 173.8377227783203 -54.54399871826172 176.8960113525391 -54.54399871826172 C 179.8114318847656 -54.54399871826172 182.3637237548828 -54.17999649047852 184.48193359375 -53.46213912963867 C 186.733154296875 -52.69921112060547 188.5647277832031 -51.51813888549805 189.9257202148438 -49.9517822265625 C 192.5017852783203 -46.98685455322266 193.8080139160156 -42.82035446166992 193.8080139160156 -37.56799697875977 L 193.8080139160156 -33.08799743652344 L 193.8080139160156 -31.08799743652344 L 191.8080139160156 -31.08799743652344 L 180.6080017089844 -31.08799743652344 L 178.6080017089844 -31.08799743652344 L 178.6080017089844 -33.08799743652344 L 178.6080017089844 -38.27199935913086 C 178.6080017089844 -40.43978500366211 178.3377227783203 -41.57042694091797 178.111083984375 -42.13721084594727 C 178.0756530761719 -42.22578430175781 178.0437927246094 -42.260498046875 177.9561462402344 -42.3061408996582 C 177.8315124511719 -42.37107086181641 177.5279998779297 -42.47999954223633 176.8960113525391 -42.47999954223633 C 175.7538604736328 -42.47999954223633 175.5945129394531 -42.12807083129883 175.5179290771484 -41.95899963378906 C 175.2487945556641 -41.36471176147461 174.9280090332031 -40.20935440063477 174.9280090332031 -38.07999801635742 L 174.9280090332031 -13.6959981918335 C 174.9280090332031 -11.540283203125 175.2519989013672 -10.42678356170654 175.5238647460938 -9.872354507446289 C 175.6053619384766 -9.706068992614746 175.7750091552734 -9.359997749328613 176.8960113525391 -9.359997749328613 C 177.9246520996094 -9.359997749328613 178.0423583984375 -9.645854949951172 178.0866546630859 -9.753498077392578 C 178.3245086669922 -10.33114051818848 178.6080017089844 -11.48399829864502 178.6080017089844 -13.6959981918335 L 178.6080017089844 -19.1359977722168 L 178.6080017089844 -21.1359977722168 L 180.6080017089844 -21.1359977722168 L 191.8080139160156 -21.1359977722168 L 193.8080139160156 -21.1359977722168 L 193.8080139160156 -19.1359977722168 L 193.8080139160156 -14.65599822998047 C 193.8080139160156 -14.54489898681641 193.8074340820312 -14.43440818786621 193.8063049316406 -14.32424259185791 C 194.1891632080078 -15.16676330566406 194.6643371582031 -15.94762897491455 195.2311553955078 -16.66449737548828 C 196.8564300537109 -18.71999740600586 198.8357849121094 -20.34592628479004 201.1140747070312 -21.49706840515137 C 201.6649475097656 -21.77540397644043 202.2587280273438 -22.05727767944336 202.8944396972656 -22.34230804443359 L 195.3131561279297 -22.64156913757324 L 193.316650390625 -22.7203540802002 L 193.3935089111328 -24.71685409545898 C 193.5838623046875 -29.66464042663574 194.9718627929688 -33.42692565917969 197.5190734863281 -35.89913940429688 C 200.0710754394531 -38.37606811523438 203.8126525878906 -39.63199615478516 208.6399993896484 -39.63199615478516 C 212.8205108642578 -39.63199615478516 216.1082916259766 -38.39907073974609 218.4119415283203 -35.96749877929688 C 220.6866455078125 -33.56642532348633 221.8400115966797 -30.37978363037109 221.8400115966797 -26.49599838256836 L 221.8400115966797 -9.215997695922852 C 221.8400115966797 -6.730291843414307 221.9366149902344 -4.545157909393311 222.1280059814453 -2.687172174453735 L 222.1280059814453 -36.99199676513672 L 222.1280059814453 -38.99199676513672 L 224.1280059814453 -38.99199676513672 L 234.3680114746094 -38.99199676513672 L 236.3680114746094 -38.99199676513672 L 236.3680114746094 -38.01911163330078 C 238.4196624755859 -39.13371276855469 240.6836242675781 -39.69599914550781 243.1360015869141 -39.69599914550781 C 245.0338592529297 -39.69599914550781 246.7173614501953 -39.20106887817383 248.1396484375 -38.22507095336914 C 248.8231048583984 -37.75602722167969 249.426513671875 -37.18427658081055 249.9467163085938 -36.51400375366211 C 252.5287017822266 -38.62759017944336 255.5231018066406 -39.69599914550781 258.8800048828125 -39.69599914550781 C 260.2535705566406 -39.69599914550781 261.5226440429688 -39.43249893188477 262.6520080566406 -38.91292572021484 C 263.7974243164062 -38.38585662841797 264.8052978515625 -37.59349822998047 265.6475830078125 -36.55799865722656 C 267.2403564453125 -34.59963989257812 268.0480041503906 -31.96792602539062 268.0480041503906 -28.73599815368652 L 268.0480041503906 2.166748117815587e-06 L 268.0480041503906 2.000002145767212 L 266.0480041503906 2.000002145767212 L 255.8080139160156 2.000002145767212 L 253.8080139160156 2.000002145767212 L 253.8080139160156 2.166748117815587e-06 L 253.8080139160156 -27.64799690246582 C 253.8080139160156 -28.11971855163574 253.7577667236328 -28.38985633850098 253.7206726074219 -28.52506446838379 C 253.6959838867188 -28.52682495117188 253.6665649414062 -28.52799797058105 253.6320037841797 -28.52799797058105 C 253.5017242431641 -28.52799797058105 253.2017211914062 -28.49814033508301 252.6564331054688 -28.2982120513916 C 252.4932098388672 -28.23835563659668 252.3328704833984 -28.16887092590332 252.1760101318359 -28.09008598327637 L 252.1760101318359 2.166748117815587e-06 L 252.1760101318359 2.000002145767212 L 250.1760101318359 2.000002145767212 L 240.0640106201172 2.000002145767212 L 238.0640106201172 2.000002145767212 L 238.0640106201172 2.166748117815587e-06 L 238.0640106201172 -27.64799690246582 C 238.0640106201172 -28.157958984375 237.9932556152344 -28.41472625732422 237.9518890380859 -28.52124214172363 C 237.9211730957031 -28.52494049072266 237.8791198730469 -28.52799797058105 237.8240051269531 -28.52799797058105 C 237.5853576660156 -28.52799797058105 237.1200408935547 -28.45598983764648 236.3680114746094 -28.06027984619141 L 236.3680114746094 2.166748117815587e-06 L 236.3680114746094 2.000002145767212 L 234.3680114746094 2.000002145767212 L 224.1280059814453 2.000002145767212 L 222.1280059814453 2.000002145767212 L 220.4800109863281 2.000002145767212 L 211.1360015869141 2.000002145767212 L 209.38671875 2.000002145767212 L 209.1692504882812 0.3813518881797791 C 209.1478729248047 0.4015333950519562 209.1264953613281 0.4215552508831024 209.1049346923828 0.4415735900402069 C 207.5340118408203 1.900359272956848 205.5472869873047 2.640002250671387 203.2000122070312 2.640002250671387 C 201.0119323730469 2.640002250671387 199.075439453125 2.084145069122314 197.4443664550781 0.9879307150840759 C 195.8479309082031 -0.08506926149129868 194.6254425048828 -1.495069265365601 193.810791015625 -3.202997922897339 C 193.2207489013672 -4.440306186676025 192.8486480712891 -5.729062557220459 192.6991424560547 -7.049057006835938 C 192.0583648681641 -5.122005462646484 191.1413116455078 -3.440011501312256 189.9514312744141 -2.014426469802856 C 188.5924987792969 -0.3862121105194092 186.7601470947266 0.8426450490951538 184.50537109375 1.638073563575745 C 182.3800811767578 2.387859344482422 179.8198699951172 2.768002271652222 176.8960113525391 2.768002271652222 Z M 207.8560028076172 -14.47659587860107 C 207.5556488037109 -14.19313049316406 207.2902221679688 -13.90874576568604 207.0603637695312 -13.62392616271973 C 206.3683624267578 -12.76649761199951 206.0320129394531 -11.72242641448975 206.0320129394531 -10.43199825286865 C 206.0320129394531 -9.633069038391113 206.1710052490234 -9.01385498046875 206.4339294433594 -8.641354560852051 C 206.5617980957031 -8.460283279418945 206.6487884521484 -8.399997711181641 206.9120025634766 -8.399997711181641 C 207.2339630126953 -8.399997711181641 207.5682220458984 -8.653305053710938 207.8560028076172 -8.962058067321777 L 207.8560028076172 -14.47659587860107 Z M 207.5522308349609 -27.88280296325684 C 207.4881134033203 -27.72451972961426 207.3992614746094 -27.41072463989258 207.3739318847656 -26.85321235656738 L 207.3717193603516 -26.80371284484863 L 207.3670043945312 -26.75435447692871 L 207.1110076904297 -24.06635475158691 L 207.1096343994141 -24.05187606811523 C 207.3548126220703 -24.14291572570801 207.6034240722656 -24.23403358459473 207.8560028076172 -24.32543182373047 L 207.8560028076172 -26.62399864196777 C 207.8560028076172 -27.30476570129395 207.7761535644531 -27.68969345092773 207.7129974365234 -27.88763046264648 C 207.7026062011719 -27.88786697387695 207.6916198730469 -27.88799858093262 207.6800079345703 -27.88799858093262 C 207.6281890869141 -27.88799858093262 207.5859069824219 -27.88581657409668 207.5522308349609 -27.88280296325684 Z M 465.6640014648438 2.640002250671387 C 461.1215209960938 2.640002250671387 457.4745178222656 1.434359312057495 454.8243713378906 -0.9433549642562866 C 452.1115112304688 -3.377354860305786 450.7359924316406 -6.914283752441406 450.7359924316406 -11.45599746704102 L 450.7359924316406 -25.53599739074707 C 450.7359924316406 -30.07771301269531 452.1115112304688 -33.61463928222656 454.8243713378906 -36.04864120483398 C 457.4745178222656 -38.42635345458984 461.1215209960938 -39.63199615478516 465.6640014648438 -39.63199615478516 C 470.2069396972656 -39.63199615478516 473.8649291992188 -38.41535568237305 476.5364379882812 -36.01592636108398 C 477.56201171875 -35.09479904174805 478.3979797363281 -34.02281188964844 479.0421752929688 -32.80538940429688 L 478.4692993164062 -36.70099639892578 L 478.1323547363281 -38.99199676513672 L 480.447998046875 -38.99199676513672 L 489.1520080566406 -38.99199676513672 L 490.9122314453125 -38.99199676513672 L 491.1358032226562 -37.24599838256836 L 491.9083557128906 -31.21254730224609 L 492.7385864257812 -37.26385498046875 L 492.9756469726562 -38.99199676513672 L 494.7200012207031 -38.99199676513672 L 502.2720031738281 -38.99199676513672 L 504.0532836914062 -38.99199676513672 L 504.2586364746094 -37.22256851196289 L 504.9933776855469 -30.89272308349609 L 505.9249267578125 -37.2806396484375 L 506.1744995117188 -38.99199676513672 L 507.9039916992188 -38.99199676513672 L 515.968017578125 -38.99199676513672 L 518.28759765625 -38.99199676513672 L 517.9462280273438 -36.69763946533203 L 512.4421997070312 0.2943592965602875 L 512.1884155273438 2.000002145767212 L 510.4640197753906 2.000002145767212 L 501.5039978027344 2.000002145767212 L 499.7881469726562 2.000002145767212 L 499.5272827148438 0.3041450381278992 L 498.1922607421875 -8.373477935791016 L 496.6909484863281 0.3396450281143188 L 496.4048767089844 2.000002145767212 L 494.7200012207031 2.000002145767212 L 485.8880004882812 2.000002145767212 L 484.1605834960938 2.000002145767212 L 483.9093017578125 0.2910021543502808 L 480.656005859375 -21.83134078979492 L 480.656005859375 -11.45599746704102 C 480.656005859375 -6.957211971282959 479.27001953125 -3.431212186813354 476.5364379882812 -0.9760692715644836 C 473.8649291992188 1.423359274864197 470.2069396972656 2.640002250671387 465.6640014648438 2.640002250671387 Z M 465.4283142089844 -8.309480667114258 C 465.4539184570312 -8.299619674682617 465.5420532226562 -8.271997451782227 465.7279968261719 -8.271997451782227 C 465.8741455078125 -8.271997451782227 465.956298828125 -8.288784027099609 465.9935607910156 -8.29936408996582 C 465.9947814941406 -8.301621437072754 465.9960632324219 -8.304067611694336 465.9974365234375 -8.30671215057373 C 466.1040649414062 -8.513998031616211 466.3520202636719 -9.16721248626709 466.3520202636719 -10.75199794769287 L 466.3520202636719 -26.23999786376953 C 466.3520202636719 -27.82478332519531 466.1040649414062 -28.47799873352051 465.9974365234375 -28.68528366088867 C 465.9960632324219 -28.68792724609375 465.9947814941406 -28.69037437438965 465.9935607910156 -28.6926326751709 C 465.956298828125 -28.70321083068848 465.8741455078125 -28.71999740600586 465.7279968261719 -28.71999740600586 C 465.5541687011719 -28.71999740600586 465.4717407226562 -28.69441223144531 465.4481506347656 -28.68542671203613 C 465.442138671875 -28.67758369445801 465.43115234375 -28.66177177429199 465.4167785644531 -28.63456916809082 C 465.2760925292969 -28.36785507202148 465.0400085449219 -27.70228385925293 465.0400085449219 -26.23999786376953 L 465.0400085449219 -10.75199794769287 C 465.0400085449219 -9.188569068908691 465.2957153320312 -8.548783302307129 465.4056396484375 -8.346283912658691 C 465.4156799316406 -8.327857971191406 465.4234924316406 -8.31614875793457 465.4283142089844 -8.309480667114258 Z M 133.1840057373047 2.640002250671387 C 129.5039367675781 2.640002250671387 126.3789367675781 1.779859304428101 123.8957901000977 0.08343073725700378 C 122.2654342651367 -1.030414700508118 120.8415603637695 -2.574575901031494 119.6401824951172 -4.527504920959473 C 119.7416152954102 -2.942731380462646 119.8994445800781 -1.546793580055237 120.1128616333008 -0.351569265127182 L 120.5327911376953 2.000002145767212 L 118.1440048217773 2.000002145767212 L 108.8000030517578 2.000002145767212 L 107.0507202148438 2.000002145767212 L 106.833251953125 0.3813518881797791 C 106.8118743896484 0.4015333950519562 106.7904891967773 0.4215552508831024 106.7689361572266 0.4415735900402069 C 105.1980056762695 1.900359272956848 103.2112884521484 2.640002250671387 100.8640060424805 2.640002250671387 C 98.67593383789062 2.640002250671387 96.73943328857422 2.084145069122314 95.10836029052734 0.9879307150840759 C 93.51193237304688 -0.08506926149129868 92.28943634033203 -1.495069265365601 91.47479248046875 -3.202997922897339 C 91.25018310546875 -3.673932313919067 91.05719757080078 -4.152231693267822 90.89600372314453 -4.63701057434082 L 90.89600372314453 2.166748117815587e-06 L 90.89600372314453 2.000002145767212 L 88.89600372314453 2.000002145767212 L 78.656005859375 2.000002145767212 L 76.656005859375 2.000002145767212 L 76.656005859375 2.166748117815587e-06 L 76.656005859375 -27.64799690246582 C 76.656005859375 -28.11971855163574 76.60577392578125 -28.38985633850098 76.56866455078125 -28.52506446838379 C 76.54398345947266 -28.52682495117188 76.51456451416016 -28.52799797058105 76.48000335693359 -28.52799797058105 C 76.34972381591797 -28.52799797058105 76.04972076416016 -28.49814033508301 75.50443267822266 -28.2982120513916 C 75.34120941162109 -28.23835563659668 75.18086242675781 -28.16887092590332 75.02400970458984 -28.09008598327637 L 75.02400970458984 2.166748117815587e-06 L 75.02400970458984 2.000002145767212 L 73.02400970458984 2.000002145767212 L 62.91200637817383 2.000002145767212 L 60.91200637817383 2.000002145767212 L 60.91200637817383 2.166748117815587e-06 L 60.91200637817383 -27.64799690246582 C 60.91200637817383 -28.157958984375 60.84125900268555 -28.41472625732422 60.79988861083984 -28.52124214172363 C 60.76917266845703 -28.52494049072266 60.72712326049805 -28.52799797058105 60.67200469970703 -28.52799797058105 C 60.43335723876953 -28.52799797058105 59.96804809570312 -28.45598983764648 59.21600723266602 -28.06027984619141 L 59.21600723266602 2.166748117815587e-06 L 59.21600723266602 2.000002145767212 L 57.21600723266602 2.000002145767212 L 46.97600555419922 2.000002145767212 L 44.97600555419922 2.000002145767212 L 44.97600555419922 2.166748117815587e-06 L 44.97600555419922 -36.99199676513672 L 44.97600555419922 -37.64100646972656 C 44.67021942138672 -36.72227478027344 44.29835891723633 -35.92385864257812 43.85900497436523 -35.23949813842773 C 43.09443664550781 -34.04849624633789 42.02972030639648 -33.13921356201172 40.69436264038086 -32.53692626953125 C 39.46700668334961 -31.98321151733398 37.99464797973633 -31.68964004516602 36.31829071044922 -31.66421127319336 L 34.70964813232422 -31.63985443115234 L 34.34114837646484 -33.20592498779297 L 33.57315063476562 -36.46992492675781 L 33.01100540161133 -38.8591423034668 L 35.46450805664062 -38.92721176147461 C 35.99579238891602 -38.94199752807617 36.67193603515625 -39.03656768798828 36.8757209777832 -39.40328216552734 C 37.01491546630859 -39.65380859375 37.16897201538086 -40.05455780029297 37.27825164794922 -40.6879997253418 L 35.00800704956055 -40.6879997253418 L 33.00800704956055 -40.6879997253418 L 33.00800704956055 -42.6879997253418 L 33.00800704956055 -49.89902877807617 L 24.59646797180176 -24.96059799194336 L 34.42900466918945 -0.7526406645774841 L 35.54700469970703 2.000002145767212 L 32.57600784301758 2.000002145767212 L 21.82400703430176 2.000002145767212 L 20.48129272460938 2.000002145767212 L 19.97293472290039 0.757287859916687 L 15.60849952697754 -9.911332130432129 L 11.80207824707031 0.676645040512085 L 11.32629203796387 2.000002145767212 L 9.92000675201416 2.000002145767212 L 0.4480063617229462 2.000002145767212 L -2.397922277450562 2.000002145767212 L -1.43370795249939 -0.6775692701339722 L 8.356499671936035 -27.86566162109375 L -0.9602793455123901 -51.09549713134766 L -2.060993671417236 -53.83999633789062 L 0.8960063457489014 -53.83999633789062 L 11.71200656890869 -53.83999633789062 L 13.05807781219482 -53.83999633789062 L 13.56486320495605 -52.59299850463867 L 17.20966911315918 -43.62431716918945 L 20.1160774230957 -52.46464157104492 L 20.5682201385498 -53.83999633789062 L 22.01600646972656 -53.83999633789062 L 31.55200576782227 -53.83999633789062 L 34.3372917175293 -53.83999633789062 L 35.00800704956055 -53.83999633789062 L 44.16000747680664 -53.83999633789062 L 46.16000747680664 -53.83999633789062 L 46.16000747680664 -51.83999633789062 C 46.16000747680664 -49.9080696105957 46.11664962768555 -47.4975700378418 46.03107833862305 -44.6754264831543 L 46.031005859375 -44.67278289794922 L 46.03093338012695 -44.67007064819336 C 45.95832061767578 -42.46768569946289 45.73575210571289 -40.58304977416992 45.35765075683594 -38.99199676513672 L 46.97600555419922 -38.99199676513672 L 57.21600723266602 -38.99199676513672 L 59.21600723266602 -38.99199676513672 L 59.21600723266602 -38.01911163330078 C 61.26765823364258 -39.13371276855469 63.53162384033203 -39.69599914550781 65.9840087890625 -39.69599914550781 C 67.88186645507812 -39.69599914550781 69.56536102294922 -39.20106887817383 70.98764801025391 -38.22507095336914 C 71.67110443115234 -37.75602722167969 72.27451324462891 -37.18427658081055 72.79471588134766 -36.51400375366211 C 75.376708984375 -38.62759017944336 78.37109375 -39.69599914550781 81.72800445556641 -39.69599914550781 C 83.10157775878906 -39.69599914550781 84.37065124511719 -39.43249893188477 85.50000762939453 -38.91292572021484 C 86.64543151855469 -38.38585662841797 87.65328979492188 -37.59349822998047 88.49557495117188 -36.55799865722656 C 90.08836364746094 -34.59963989257812 90.89600372314453 -31.96792602539062 90.89600372314453 -28.73599815368652 L 90.89600372314453 -12.79168891906738 C 91.33106994628906 -14.23604774475098 91.99858093261719 -15.53056812286377 92.89514923095703 -16.66449737548828 C 94.52043151855469 -18.71999740600586 96.49979400634766 -20.34592628479004 98.778076171875 -21.49706840515137 C 99.32894897460938 -21.77540397644043 99.9227294921875 -22.05727767944336 100.5584335327148 -22.34230804443359 L 92.97714996337891 -22.64156913757324 L 90.98072052001953 -22.7203540802002 L 91.05750274658203 -24.71685409545898 C 91.24771881103516 -29.66456985473633 92.63579559326172 -33.42678451538086 95.18307495117188 -35.89913940429688 C 97.73507690429688 -38.37606811523438 101.4766464233398 -39.63199615478516 106.3040084838867 -39.63199615478516 C 110.484504699707 -39.63199615478516 113.7722930908203 -38.39907073974609 116.0759353637695 -35.96749877929688 C 117.5090179443359 -34.45481109619141 118.4970932006836 -32.63004684448242 119.0320205688477 -30.5158748626709 C 119.3490524291992 -31.69730567932129 119.8575668334961 -32.80511856079102 120.5545806884766 -33.82928466796875 C 121.7895812988281 -35.64392471313477 123.4553604125977 -37.08378219604492 125.5055770874023 -38.10885620117188 C 127.5270767211914 -39.11956787109375 129.7228698730469 -39.63199615478516 132.0320129394531 -39.63199615478516 C 135.5174407958984 -39.63199615478516 138.4927978515625 -38.65285491943359 140.8753662109375 -36.72171401977539 C 143.2220001220703 -34.8197135925293 144.900146484375 -32.09764099121094 145.8630065917969 -28.63128280639648 L 146.3198699951172 -26.9867115020752 L 144.7675018310547 -26.27706909179688 L 138.0475006103516 -23.20506858825684 L 137.4425659179688 -22.92852210998535 L 139.1581573486328 -21.42214965820312 C 141.3942413330078 -19.54238700866699 143.1548767089844 -17.7416820526123 144.3919372558594 -16.06935501098633 C 145.7987213134766 -14.16756916046143 146.5120086669922 -11.92635536193848 146.5120086669922 -9.407998085021973 C 146.5120086669922 -6.913569450378418 145.8653564453125 -4.711783409118652 144.5900115966797 -2.863926410675049 C 143.3416442871094 -1.055140733718872 141.6677856445312 0.3374307453632355 139.6150054931641 1.275216460227966 C 137.6325073242188 2.180787801742554 135.4687957763672 2.640002250671387 133.1840057373047 2.640002250671387 Z M 128.6378173828125 -12.84659194946289 L 128.7689361572266 -12.51878356933594 C 129.3502197265625 -11.0655689239502 130.0141448974609 -9.950998306274414 130.7423706054688 -9.205925941467285 C 131.4482879638672 -8.483569145202637 131.9991455078125 -8.399997711181641 132.3520050048828 -8.399997711181641 C 132.5430297851562 -8.399997711181641 132.6828002929688 -8.41310977935791 132.7811889648438 -8.428554534912109 C 132.7594146728516 -8.842215538024902 132.6101531982422 -9.191011428833008 132.3055114746094 -9.546426773071289 C 131.9322509765625 -9.981884002685547 130.9921417236328 -10.90617084503174 128.6378173828125 -12.84659194946289 Z M 105.5200042724609 -14.47659587860107 C 105.2196502685547 -14.19313049316406 104.954216003418 -13.90874576568604 104.724365234375 -13.62392616271973 C 104.0324325561523 -12.76642608642578 103.6960067749023 -11.72235488891602 103.6960067749023 -10.43199825286865 C 103.6960067749023 -9.633069038391113 103.8350067138672 -9.01385498046875 104.0979385375977 -8.641354560852051 C 104.2257919311523 -8.460283279418945 104.3127899169922 -8.399997711181641 104.5760040283203 -8.399997711181641 C 104.8979644775391 -8.399997711181641 105.2322158813477 -8.653305053710938 105.5200042724609 -8.962058067321777 L 105.5200042724609 -14.47659587860107 Z M 119.5040054321289 -22.71338844299316 L 119.5040054321289 -10.69200134277344 L 126.1042938232422 -13.60564041137695 L 127.1628341674805 -14.07291603088379 L 125.6956481933594 -15.29556941986084 L 125.6898651123047 -15.30035495758057 L 125.6840744018555 -15.30521202087402 C 123.29443359375 -17.32728385925293 121.5886459350586 -19.14385414123535 120.4692230224609 -20.85878372192383 C 120.0884323120117 -21.44212532043457 119.766487121582 -22.06104850769043 119.5040054321289 -22.71338844299316 Z M 105.2162246704102 -27.88280296325684 C 105.1521072387695 -27.72451972961426 105.0632705688477 -27.41072463989258 105.0379333496094 -26.85321235656738 L 105.0357208251953 -26.80371284484863 L 105.031005859375 -26.75435447692871 L 104.7750091552734 -24.06635475158691 L 104.7736282348633 -24.05187606811523 C 105.0188140869141 -24.14291572570801 105.2674179077148 -24.23403358459473 105.5200042724609 -24.32543182373047 L 105.5200042724609 -26.62399864196777 C 105.5200042724609 -27.30476570129395 105.4401626586914 -27.68969345092773 105.3769989013672 -27.88763046264648 C 105.3666076660156 -27.88786697387695 105.3556213378906 -27.88799858093262 105.3440093994141 -27.88799858093262 C 105.2921905517578 -27.88799858093262 105.2499160766602 -27.88581657409668 105.2162246704102 -27.88280296325684 Z M 132.0525817871094 -28.31177139282227 C 132.0501098632812 -28.29111862182617 132.0480041503906 -28.26228141784668 132.0480041503906 -28.22399711608887 C 132.0480041503906 -28.20899772644043 132.05615234375 -27.84864044189453 132.7615814208984 -27.08892631530762 C 133.3110809326172 -26.4971981048584 134.1141204833984 -25.75225067138672 135.1580352783203 -24.86549758911133 C 134.8116760253906 -25.80544471740723 134.3184051513672 -26.66725158691406 133.6881561279297 -27.43256950378418 C 132.9441528320312 -28.33599853515625 132.4502868652344 -28.33599853515625 132.2880096435547 -28.33599853515625 C 132.1635131835938 -28.33599853515625 132.0897064208984 -28.32195854187012 132.0525817871094 -28.31177139282227 Z M 450.2560119628906 2.000002145767212 L 448.2560119628906 2.000002145767212 L 440.5119934082031 2.000002145767212 L 439.1519470214844 2.000002145767212 L 438.6520080566406 0.7351450324058533 L 431.8880004882812 -16.37858963012695 L 431.8880004882812 2.166748117815587e-06 L 431.8880004882812 2.000002145767212 L 429.8880004882812 2.000002145767212 L 420.0960083007812 2.000002145767212 L 418.0960083007812 2.000002145767212 L 418.0960083007812 2.166748117815587e-06 L 418.0960083007812 -51.83999633789062 L 418.0960083007812 -53.83999633789062 L 420.0960083007812 -53.83999633789062 L 428.1600036621094 -53.83999633789062 L 429.4823608398438 -53.83999633789062 L 430.0002136230469 -52.62328338623047 L 436.7839965820312 -36.68547439575195 L 436.7839965820312 -51.83999633789062 L 436.7839965820312 -53.83999633789062 L 438.7839965820312 -53.83999633789062 L 448.2560119628906 -53.83999633789062 L 450.2560119628906 -53.83999633789062 L 450.2560119628906 -51.83999633789062 L 450.2560119628906 2.166748117815587e-06 L 450.2560119628906 2.000002145767212 Z M 553.3778686523438 -10.86399745941162 L 551.1680297851562 -10.86399745941162 L 543.6800537109375 -10.86399745941162 L 541.5826416015625 -10.86399745941162 L 541.682373046875 -12.95899772644043 C 541.7063598632812 -13.46456909179688 541.7301025390625 -13.86599826812744 541.7509155273438 -14.22014045715332 C 541.7853393554688 -14.80378341674805 541.80810546875 -15.18928337097168 541.80810546875 -15.61599826812744 C 541.80810546875 -16.26999855041504 541.80810546875 -16.26999855041504 541.6185302734375 -20.0600700378418 L 541.6181030273438 -20.06892585754395 L 541.6177368164062 -20.07771301269531 L 540.7219848632812 -41.83086776733398 C 540.560302734375 -45.3888053894043 540.3673706054688 -48.02197265625 540.1641235351562 -49.44521331787109 L 539.838134765625 -51.72799682617188 L 542.1441040039062 -51.72799682617188 L 552.6400146484375 -51.72799682617188 L 554.87451171875 -51.72799682617188 L 554.6278076171875 -49.50714111328125 C 554.4537353515625 -47.94085311889648 554.1962890625 -44.71692657470703 554.0618896484375 -41.82706832885742 L 553.16650390625 -20.0832405090332 C 553.0401000976562 -16.41374206542969 553.0401000976562 -16.41293907165527 553.0401000976562 -15.55199813842773 C 553.0401000976562 -14.82106971740723 553.0401000976562 -14.24371242523193 553.1580810546875 -13.06292629241943 L 553.3778686523438 -10.86399745941162 Z M 341.8399963378906 -41.26399612426758 L 339.8399963378906 -41.26399612426758 L 329.343994140625 -41.26399612426758 L 327.343994140625 -41.26399612426758 L 327.343994140625 -43.26399612426758 L 327.343994140625 -50.49599838256836 L 327.343994140625 -52.49599838256836 L 329.343994140625 -52.49599838256836 L 339.8399963378906 -52.49599838256836 L 341.8399963378906 -52.49599838256836 L 341.8399963378906 -50.49599838256836 L 341.8399963378906 -43.26399612426758 L 341.8399963378906 -41.26399612426758 Z" stroke="none"/>
    <path d="M 176.89599609375 -52.54399871826172 C 171.2213745117188 -52.54399871826172 167.2107238769531 -51.0826416015625 164.864013671875 -48.15999603271484 C 162.5173645019531 -45.23735427856445 161.343994140625 -40.91735458374023 161.343994140625 -35.19999694824219 L 161.343994140625 -16.51199722290039 C 161.343994140625 -10.92263984680176 162.5280151367188 -6.645355224609375 164.89599609375 -3.679996490478516 C 167.2640075683594 -0.7146415710449219 171.2640075683594 0.7680015563964844 176.89599609375 0.7680015563964844 C 182.3146362304688 0.7680015563964844 186.1546630859375 -0.586639404296875 188.416015625 -3.295997619628906 C 190.6773681640625 -6.005355834960938 191.8080139160156 -9.791997909545898 191.8080139160156 -14.65599822998047 L 191.8080139160156 -19.1359977722168 L 180.6080017089844 -19.1359977722168 L 180.6080017089844 -13.69599723815918 C 180.6080017089844 -11.64799690246582 180.3840026855469 -10.07999801635742 179.9360046386719 -8.991998672485352 C 179.4880065917969 -7.903997421264648 178.4746398925781 -7.359996795654297 176.89599609375 -7.359996795654297 C 175.3173522949219 -7.359996795654297 174.2613525390625 -7.903997421264648 173.7279968261719 -8.991998672485352 C 173.1946411132812 -10.07999801635742 172.9280090332031 -11.64799690246582 172.9280090332031 -13.69599723815918 L 172.9280090332031 -38.07999801635742 C 172.9280090332031 -40.08535385131836 173.1840209960938 -41.65335464477539 173.6960144042969 -42.78399658203125 C 174.2080078125 -43.91464233398438 175.274658203125 -44.47999572753906 176.89599609375 -44.47999572753906 C 178.5173645019531 -44.47999572753906 179.5412902832031 -43.94664001464844 179.968017578125 -42.87999725341797 C 180.3946533203125 -41.8133544921875 180.6080017089844 -40.2773551940918 180.6080017089844 -38.27199935913086 L 180.6080017089844 -33.08799743652344 L 191.8080139160156 -33.08799743652344 L 191.8080139160156 -37.56799697875977 C 191.8080139160156 -42.34664154052734 190.6773681640625 -46.037353515625 188.416015625 -48.63999938964844 C 186.1546630859375 -51.24264144897461 182.3146362304688 -52.54399871826172 176.89599609375 -52.54399871826172 M 0.89599609375 -51.83999633789062 L 10.49591064453125 -27.90399742126465 L 0.447998046875 3.814697265625e-06 L 9.91998291015625 3.814697265625e-06 L 15.4879150390625 -15.48799705505371 L 21.82391357421875 3.814697265625e-06 L 32.57598876953125 3.814697265625e-06 L 22.4639892578125 -24.89599800109863 L 31.552001953125 -51.83999633789062 L 22.0159912109375 -51.83999633789062 L 17.40802001953125 -37.82399749755859 L 11.7119140625 -51.83999633789062 L 0.89599609375 -51.83999633789062 M 35.00799560546875 -51.83999633789062 L 35.00799560546875 -42.68799591064453 L 39.42401123046875 -42.68799591064453 C 39.42401123046875 -40.81064224243164 39.1573486328125 -39.39199829101562 38.6240234375 -38.43199920654297 C 38.0906982421875 -37.47199630737305 37.0560302734375 -36.97064208984375 35.52001953125 -36.92799758911133 L 36.28802490234375 -33.66399765014648 C 39.10400390625 -33.70664215087891 41.066650390625 -34.59199905395508 42.17599487304688 -36.31999969482422 C 43.28536987304688 -38.04799652099609 43.90399169921875 -40.85335540771484 44.03201293945312 -44.73599624633789 C 44.11737060546875 -47.55199813842773 44.16000366210938 -49.91999816894531 44.16000366210938 -51.83999633789062 L 35.00799560546875 -51.83999633789062 M 420.0960083007812 -51.83999633789062 L 420.0960083007812 3.814697265625e-06 L 429.8880004882812 3.814697265625e-06 L 429.8880004882812 -26.87999725341797 L 440.5120239257812 3.814697265625e-06 L 448.2560119628906 3.814697265625e-06 L 448.2560119628906 -51.83999633789062 L 438.7839965820312 -51.83999633789062 L 438.7839965820312 -26.87999725341797 L 428.1600036621094 -51.83999633789062 L 420.0960083007812 -51.83999633789062 M 329.343994140625 -50.49599838256836 L 329.343994140625 -43.26399612426758 L 339.8400268554688 -43.26399612426758 L 339.8400268554688 -50.49599838256836 L 329.343994140625 -50.49599838256836 M 542.1439819335938 -49.72799682617188 C 542.4000244140625 -47.93599700927734 542.5919799804688 -44.73599624633789 542.7200317382812 -41.91999816894531 L 543.6160278320312 -20.15999794006348 C 543.8079833984375 -16.31999778747559 543.8079833984375 -16.31999778747559 543.8079833984375 -15.61599731445312 C 543.8079833984375 -14.84799766540527 543.7440185546875 -14.20799827575684 543.6800537109375 -12.86399841308594 L 551.1680297851562 -12.86399841308594 C 551.0399780273438 -14.14399719238281 551.0399780273438 -14.78399848937988 551.0399780273438 -15.55199813842773 C 551.0399780273438 -16.447998046875 551.0399780273438 -16.447998046875 551.1680297851562 -20.15999794006348 L 552.0640258789062 -41.91999816894531 C 552.1920166015625 -44.6719970703125 552.447998046875 -48 552.6400146484375 -49.72799682617188 L 542.1439819335938 -49.72799682617188 M 371.6480102539062 -39.23199844360352 L 370.3040161132812 -38.59199905395508 C 368.2986450195312 -37.61064147949219 366.8052978515625 -36.33064270019531 365.8240051269531 -34.75199890136719 C 363.7760009765625 -36.6719970703125 360.8533630371094 -37.63199615478516 357.0559997558594 -37.63199615478516 C 352.7893676757812 -37.63199615478516 349.5146484375 -36.52264022827148 347.2319946289062 -34.30399703979492 C 344.9492797851562 -32.08535385131836 343.8080139160156 -28.90664100646973 343.8080139160156 -24.76799774169922 C 343.8080139160156 -20.54399871826172 345.0239868164062 -17.34399795532227 347.4559936523438 -15.16799736022949 C 346.0480041503906 -13.93064117431641 345.0133666992188 -12.77864074707031 344.3519897460938 -11.71199798583984 C 343.6906433105469 -10.64535522460938 343.3599853515625 -9.407997131347656 343.3599853515625 -7.999998092651367 C 343.3599853515625 -5.013355255126953 345.066650390625 -3.050640106201172 348.4800109863281 -2.11199951171875 C 344.6400146484375 -0.362640380859375 342.7200012207031 2.090644836425781 342.7200012207031 5.248001098632812 C 342.7200012207031 7.765357971191406 343.9360046386719 9.653358459472656 346.3680114746094 10.91200256347656 C 348.7999877929688 12.17064666748047 352.1492919921875 12.80000305175781 356.416015625 12.80000305175781 C 361.962646484375 12.80000305175781 365.9840087890625 11.89336013793945 368.4800109863281 10.08000183105469 C 370.9760131835938 8.266643524169922 372.2239990234375 5.546646118164062 372.2239990234375 1.920001983642578 C 372.2239990234375 -0.8533554077148438 371.4666442871094 -3.071998596191406 369.9520263671875 -4.735996246337891 C 368.4372863769531 -6.399997711181641 366.1226501464844 -7.402641296386719 363.0079956054688 -7.743999481201172 L 353.2799987792969 -8.831996917724609 C 352 -9.002639770507812 351.0932922363281 -9.237354278564453 350.5599975585938 -9.53599739074707 C 350.0266418457031 -9.834640502929688 349.760009765625 -10.23999786376953 349.760009765625 -10.75199699401855 C 349.760009765625 -11.34935569763184 350.0800170898438 -12.09599876403809 350.7200012207031 -12.99199867248535 C 352.6400146484375 -12.30935478210449 354.7520141601562 -11.96799850463867 357.0559997558594 -11.96799850463867 C 361.2373657226562 -11.96799850463867 364.4053649902344 -13.07735443115234 366.5599975585938 -15.29599761962891 C 368.7146606445312 -17.51464080810547 369.7919921875 -20.6506404876709 369.7919921875 -24.70399856567383 C 369.7919921875 -27.26399803161621 369.30126953125 -29.56799697875977 368.3200073242188 -31.61599731445312 C 369.1306457519531 -32.08535385131836 370.1440124511719 -32.58663940429688 371.3599853515625 -33.11999893188477 C 372.5759887695312 -33.65335464477539 373.482666015625 -34.02664184570312 374.0800170898438 -34.23999786376953 L 371.6480102539062 -39.23199844360352 M 357.0559997558594 -18.17599868774414 C 355.9039916992188 -18.17599868774414 355.135986328125 -18.65599822998047 354.7520141601562 -19.61599731445312 C 354.3680114746094 -20.57599830627441 354.176025390625 -22.29335403442383 354.176025390625 -24.76799774169922 C 354.176025390625 -27.32799911499023 354.3680114746094 -29.07735443115234 354.7520141601562 -30.01599884033203 C 355.135986328125 -30.95463943481445 355.9039916992188 -31.42399787902832 357.0559997558594 -31.42399787902832 C 358.2080078125 -31.42399787902832 358.9760131835938 -30.94399642944336 359.3599853515625 -29.9839973449707 C 359.7440185546875 -29.02399826049805 359.9360046386719 -27.28535461425781 359.9360046386719 -24.76799774169922 C 359.9360046386719 -22.25064086914062 359.7440185546875 -20.52264022827148 359.3599853515625 -19.58399772644043 C 358.9760131835938 -18.64535522460938 358.2080078125 -18.17599868774414 357.0559997558594 -18.17599868774414 M 357.760009765625 5.248001098632812 C 355.1572875976562 5.248001098632812 353.2906494140625 5.002643585205078 352.1600036621094 4.512001037597656 C 351.029296875 4.021358489990234 350.4639892578125 3.242645263671875 350.4639892578125 2.176002502441406 C 350.4639892578125 0.9813575744628906 351.1893615722656 -0.1706390380859375 352.6400146484375 -1.279998779296875 L 359.4880065917969 -0.5759963989257812 C 361.6213684082031 -0.362640380859375 363.0826416015625 -0.05335617065429688 363.8720092773438 0.3520011901855469 C 364.661376953125 0.7573585510253906 365.0559997558594 1.408000946044922 365.0559997558594 2.304000854492188 C 365.0559997558594 3.413360595703125 364.4692993164062 4.181358337402344 363.2960205078125 4.608001708984375 C 362.1226501464844 5.034645080566406 360.27734375 5.248001098632812 357.760009765625 5.248001098632812 M 65.9840087890625 -37.69599914550781 C 62.61337280273438 -37.69599914550781 59.69064331054688 -36.47999954223633 57.21600341796875 -34.04799652099609 L 57.21600341796875 -36.99199676513672 L 46.97601318359375 -36.99199676513672 L 46.97601318359375 3.814697265625e-06 L 57.21600341796875 3.814697265625e-06 L 57.21600341796875 -29.18399810791016 C 58.53863525390625 -30.07999801635742 59.69064331054688 -30.52799797058105 60.6719970703125 -30.52799797058105 C 62.16537475585938 -30.52799797058105 62.91201782226562 -29.56799697875977 62.91201782226562 -27.64799880981445 L 62.91201782226562 3.814697265625e-06 L 73.02401733398438 3.814697265625e-06 L 73.02401733398438 -28.73599815368652 L 73.02401733398438 -29.18399810791016 C 73.57864379882812 -29.61064147949219 74.17599487304688 -29.94135475158691 74.81600952148438 -30.17599868774414 C 75.45599365234375 -30.41064071655273 76.01065063476562 -30.52799797058105 76.48001098632812 -30.52799797058105 C 77.20529174804688 -30.52799797058105 77.74929809570312 -30.30399703979492 78.11199951171875 -29.85599899291992 C 78.47463989257812 -29.40799713134766 78.656005859375 -28.6719970703125 78.656005859375 -27.64799880981445 L 78.656005859375 3.814697265625e-06 L 88.89599609375 3.814697265625e-06 L 88.89599609375 -28.73599815368652 C 88.89599609375 -31.50935363769531 88.24530029296875 -33.69599914550781 86.94400024414062 -35.29599761962891 C 85.64263916015625 -36.89599609375 83.90399169921875 -37.69599914550781 81.72799682617188 -37.69599914550781 C 78.05865478515625 -37.69599914550781 74.92263793945312 -36.2239990234375 72.32000732421875 -33.27999877929688 C 71.76528930664062 -34.73064041137695 70.94400024414062 -35.82935333251953 69.85601806640625 -36.57599639892578 C 68.76800537109375 -37.32263946533203 67.477294921875 -37.69599914550781 65.9840087890625 -37.69599914550781 M 243.1360168457031 -37.69599914550781 C 239.7652893066406 -37.69599914550781 236.8426513671875 -36.47999954223633 234.3680114746094 -34.04799652099609 L 234.3680114746094 -36.99199676513672 L 224.1280212402344 -36.99199676513672 L 224.1280212402344 3.814697265625e-06 L 234.3680114746094 3.814697265625e-06 L 234.3680114746094 -29.18399810791016 C 235.6906433105469 -30.07999801635742 236.8426513671875 -30.52799797058105 237.8240051269531 -30.52799797058105 C 239.3172912597656 -30.52799797058105 240.0639953613281 -29.56799697875977 240.0639953613281 -27.64799880981445 L 240.0639953613281 3.814697265625e-06 L 250.1759948730469 3.814697265625e-06 L 250.1759948730469 -28.73599815368652 L 250.1759948730469 -29.18399810791016 C 250.7306518554688 -29.61064147949219 251.3280029296875 -29.94135475158691 251.968017578125 -30.17599868774414 C 252.6080017089844 -30.41064071655273 253.1626586914062 -30.52799797058105 253.6320190429688 -30.52799797058105 C 254.3573608398438 -30.52799797058105 254.9013671875 -30.30399703979492 255.2640075683594 -29.85599899291992 C 255.6266479492188 -29.40799713134766 255.8080139160156 -28.6719970703125 255.8080139160156 -27.64799880981445 L 255.8080139160156 3.814697265625e-06 L 266.0480041503906 3.814697265625e-06 L 266.0480041503906 -28.73599815368652 C 266.0480041503906 -31.50935363769531 265.3973693847656 -33.69599914550781 264.0960083007812 -35.29599761962891 C 262.7946472167969 -36.89599609375 261.0559997558594 -37.69599914550781 258.8800048828125 -37.69599914550781 C 255.2107238769531 -37.69599914550781 252.0746459960938 -36.2239990234375 249.4720153808594 -33.27999877929688 C 248.9172973632812 -34.73064041137695 248.0960083007812 -35.82935333251953 247.0079956054688 -36.57599639892578 C 245.9200134277344 -37.32263946533203 244.6293640136719 -37.69599914550781 243.1360168457031 -37.69599914550781 M 106.3040161132812 -37.63199615478516 C 101.9946594238281 -37.63199615478516 98.75201416015625 -36.57599639892578 96.57601928710938 -34.46399688720703 C 94.39999389648438 -32.35199737548828 93.22665405273438 -29.07735443115234 93.05599975585938 -24.6399974822998 L 102.7839965820312 -24.25599670410156 L 103.0400085449219 -26.94399642944336 C 103.0826416015625 -27.88264083862305 103.274658203125 -28.60799789428711 103.6159973144531 -29.11999893188477 C 103.9573059082031 -29.63199806213379 104.5332946777344 -29.88799667358398 105.343994140625 -29.88799667358398 C 106.1546630859375 -29.88799667358398 106.7200012207031 -29.61064147949219 107.0400085449219 -29.05599784851074 C 107.3600158691406 -28.5013542175293 107.52001953125 -27.69063949584961 107.52001953125 -26.62399673461914 L 107.52001953125 -22.9119987487793 C 104.3200073242188 -21.80264091491699 101.7066345214844 -20.73599815368652 99.67999267578125 -19.71199798583984 C 97.65328979492188 -18.68799781799316 95.91464233398438 -17.25864028930664 94.46401977539062 -15.42399787902832 C 93.0133056640625 -13.58935546875 92.28799438476562 -11.24264144897461 92.28799438476562 -8.383996963500977 C 92.28799438476562 -6.890640258789062 92.61865234375 -5.450641632080078 93.27999877929688 -4.063999176025391 C 93.94137573242188 -2.677356719970703 94.92263793945312 -1.546642303466797 96.2239990234375 -0.6719970703125 C 97.52529907226562 0.2026443481445312 99.072021484375 0.6400032043457031 100.864013671875 0.6400032043457031 C 102.6986389160156 0.6400032043457031 104.2132873535156 0.085357666015625 105.4080200195312 -1.023998260498047 C 106.6026611328125 -2.133354187011719 107.4559936523438 -3.541355133056641 107.968017578125 -5.247997283935547 C 108.1386413574219 -4.607997894287109 108.416015625 -2.858642578125 108.8000183105469 3.814697265625e-06 L 118.1440124511719 3.814697265625e-06 C 117.7173767089844 -2.389354705810547 117.5039978027344 -5.461353302001953 117.5039978027344 -9.215997695922852 L 117.5039978027344 -26.49599838256836 C 117.5039978027344 -29.86664199829102 116.5440063476562 -32.56535339355469 114.6239929199219 -34.59199905395508 C 112.7040100097656 -36.6186408996582 109.9306640625 -37.63199615478516 106.3040161132812 -37.63199615478516 M 104.5760192871094 -6.399997711181641 C 103.6799926757812 -6.399997711181641 102.9760131835938 -6.762641906738281 102.4640197753906 -7.487998962402344 C 101.9519958496094 -8.213354110717773 101.6960144042969 -9.19464111328125 101.6960144042969 -10.43199729919434 C 101.6960144042969 -12.18135452270508 102.1866455078125 -13.66399765014648 103.1679992675781 -14.87999725341797 C 104.1492919921875 -16.09599876403809 105.6000061035156 -17.25864028930664 107.52001953125 -18.36799812316895 L 107.52001953125 -8.255998611450195 C 106.6239929199219 -7.018642425537109 105.6426391601562 -6.399997711181641 104.5760192871094 -6.399997711181641 M 132.0320129394531 -37.63199615478516 C 130.0266418457031 -37.63199615478516 128.1493530273438 -37.19464111328125 126.3999938964844 -36.31999969482422 C 124.650634765625 -35.44535446166992 123.2532958984375 -34.23999786376953 122.2080078125 -32.70399856567383 C 121.1626586914062 -31.16799736022949 120.6400146484375 -29.41864013671875 120.6400146484375 -27.45599746704102 C 120.6400146484375 -25.32263946533203 121.1412963867188 -23.48799705505371 122.1440124511719 -21.95199775695801 C 123.1466369628906 -20.4159984588623 124.7572937011719 -18.70935440063477 126.9760131835938 -16.83199691772461 L 129.6640014648438 -14.59199714660645 C 131.79736328125 -12.8426399230957 133.1840209960938 -11.59464073181152 133.8240051269531 -10.84799766540527 C 134.4640197753906 -10.10135459899902 134.7839965820312 -9.258640289306641 134.7839965820312 -8.319997787475586 C 134.7839965820312 -7.039997100830078 133.9732971191406 -6.399997711181641 132.3520202636719 -6.399997711181641 C 131.2426452636719 -6.399997711181641 130.2293701171875 -6.869354248046875 129.31201171875 -7.807998657226562 C 128.3946533203125 -8.746641159057617 127.5946350097656 -10.06935501098633 126.9120178222656 -11.77599716186523 L 119.8080139160156 -8.639997482299805 C 121.1306457519531 -5.397354125976562 122.8692932128906 -3.039997100830078 125.0240173339844 -1.567996978759766 C 127.1786499023438 -0.09599685668945312 129.8986511230469 0.6400032043457031 133.1840209960938 0.6400032043457031 C 135.1893005371094 0.6400032043457031 137.0559997558594 0.2453575134277344 138.7839965820312 -0.5439987182617188 C 140.5119934082031 -1.333354949951172 141.8986511230469 -2.485355377197266 142.9440002441406 -3.999996185302734 C 143.9892883300781 -5.514640808105469 144.5119934082031 -7.317356109619141 144.5119934082031 -9.407997131347656 C 144.5119934082031 -11.4986400604248 143.9359436035156 -13.32264137268066 142.7839965820312 -14.87999725341797 C 141.6320190429688 -16.43735504150391 139.9892883300781 -18.11199760437012 137.8560180664062 -19.90399742126465 L 135.2319946289062 -22.20799827575684 C 133.4400024414062 -23.65863990783691 132.1280212402344 -24.83199691772461 131.2960205078125 -25.72799682617188 C 130.4640197753906 -26.62399673461914 130.0480041503906 -27.45599746704102 130.0480041503906 -28.2239990234375 C 130.0480041503906 -28.86399841308594 130.2506408691406 -29.37599754333496 130.656005859375 -29.7599983215332 C 131.0613708496094 -30.14399719238281 131.6053771972656 -30.33599853515625 132.2879943847656 -30.33599853515625 C 133.3546447753906 -30.33599853515625 134.3359985351562 -29.7919979095459 135.2319946289062 -28.70399856567383 C 136.1280212402344 -27.61599731445312 136.7893676757812 -26.38935470581055 137.2160034179688 -25.02399826049805 L 143.9360046386719 -28.09599685668945 C 143.0826416015625 -31.16799736022949 141.6426391601562 -33.52535629272461 139.6159973144531 -35.16799926757812 C 137.58935546875 -36.81064224243164 135.0613708496094 -37.63199615478516 132.0320129394531 -37.63199615478516 M 208.6400146484375 -37.63199615478516 C 204.3307189941406 -37.63199615478516 201.0880126953125 -36.57599639892578 198.9120178222656 -34.46399688720703 C 196.7359924316406 -32.35199737548828 195.5626525878906 -29.07735443115234 195.3919982910156 -24.6399974822998 L 205.1199951171875 -24.25599670410156 L 205.3760070800781 -26.94399642944336 C 205.4186401367188 -27.88264083862305 205.6106567382812 -28.60799789428711 205.9519958496094 -29.11999893188477 C 206.2933654785156 -29.63199806213379 206.8692932128906 -29.88799667358398 207.6799926757812 -29.88799667358398 C 208.4906616210938 -29.88799667358398 209.0559997558594 -29.61064147949219 209.3760070800781 -29.05599784851074 C 209.6960144042969 -28.5013542175293 209.8560180664062 -27.69063949584961 209.8560180664062 -26.62399673461914 L 209.8560180664062 -22.9119987487793 C 206.656005859375 -21.80264091491699 204.0426635742188 -20.73599815368652 202.0159912109375 -19.71199798583984 C 199.9893493652344 -18.68799781799316 198.2506408691406 -17.25864028930664 196.8000183105469 -15.42399787902832 C 195.349365234375 -13.58935546875 194.6239929199219 -11.24264144897461 194.6239929199219 -8.383996963500977 C 194.6239929199219 -6.890640258789062 194.9546508789062 -5.450641632080078 195.6159973144531 -4.063999176025391 C 196.2773742675781 -2.677356719970703 197.2586364746094 -1.546642303466797 198.5599975585938 -0.6719970703125 C 199.8612976074219 0.2026443481445312 201.4080200195312 0.6400032043457031 203.2000122070312 0.6400032043457031 C 205.0346374511719 0.6400032043457031 206.5493774414062 0.085357666015625 207.7440185546875 -1.023998260498047 C 208.9386596679688 -2.133354187011719 209.7919921875 -3.541355133056641 210.3040161132812 -5.247997283935547 C 210.4746398925781 -4.607997894287109 210.7520141601562 -2.858642578125 211.1360168457031 3.814697265625e-06 L 220.4800109863281 3.814697265625e-06 C 220.0533752441406 -2.389354705810547 219.8399963378906 -5.461353302001953 219.8399963378906 -9.215997695922852 L 219.8399963378906 -26.49599838256836 C 219.8399963378906 -29.86664199829102 218.8800048828125 -32.56535339355469 216.9599914550781 -34.59199905395508 C 215.0400085449219 -36.6186408996582 212.2666625976562 -37.63199615478516 208.6400146484375 -37.63199615478516 M 206.9120178222656 -6.399997711181641 C 206.0159912109375 -6.399997711181641 205.31201171875 -6.762641906738281 204.8000183105469 -7.487998962402344 C 204.2879943847656 -8.213354110717773 204.0320129394531 -9.19464111328125 204.0320129394531 -10.43199729919434 C 204.0320129394531 -12.18135452270508 204.5226440429688 -13.66399765014648 205.5039978027344 -14.87999725341797 C 206.4853515625 -16.09599876403809 207.9360046386719 -17.25864028930664 209.8560180664062 -18.36799812316895 L 209.8560180664062 -8.255998611450195 C 208.9599914550781 -7.018642425537109 207.9786376953125 -6.399997711181641 206.9120178222656 -6.399997711181641 M 288.8319396972656 -37.63199615478516 C 287.50927734375 -37.63199615478516 286.1440124511719 -37.35464096069336 284.7359924316406 -36.79999923706055 C 283.3280029296875 -36.24535369873047 282.0266418457031 -35.41335296630859 280.8320007324219 -34.30399703979492 L 280.8320007324219 -36.99199676513672 L 270.3999938964844 -36.99199676513672 L 270.3999938964844 12.16000366210938 L 280.8320007324219 12.16000366210938 L 280.8320007324219 -2.815998077392578 C 283.477294921875 -0.5119972229003906 286.1012878417969 0.6400032043457031 288.7040100097656 0.6400032043457031 C 291.2640075683594 0.6400032043457031 293.2480163574219 -0.3839988708496094 294.656005859375 -2.431999206542969 C 296.0639343261719 -4.479999542236328 296.7680053710938 -7.274639129638672 296.7680053710938 -10.81599807739258 L 296.7680053710938 -26.75199890136719 C 296.7680053710938 -29.9946403503418 296.1172790527344 -32.6186408996582 294.8160095214844 -34.62399673461914 C 293.5146484375 -36.62935638427734 291.52001953125 -37.63199615478516 288.8319396972656 -37.63199615478516 M 283.5840148925781 -6.079998016357422 C 282.7306518554688 -6.079998016357422 281.8132934570312 -6.399997711181641 280.8320007324219 -7.039997100830078 L 280.8320007324219 -30.07999801635742 C 281.7706604003906 -30.9333553314209 282.7520141601562 -31.3599967956543 283.7760009765625 -31.3599967956543 C 284.6293640136719 -31.3599967956543 285.269287109375 -30.99735450744629 285.6960144042969 -30.27199745178223 C 286.1226501464844 -29.54664039611816 286.3359985351562 -28.62935638427734 286.3359985351562 -27.51999664306641 L 286.3359985351562 -10.23999786376953 C 286.3359985351562 -9.002639770507812 286.1119995117188 -7.999998092651367 285.6640014648438 -7.231998443603516 C 285.2160034179688 -6.463996887207031 284.5226440429688 -6.079998016357422 283.5840148925781 -6.079998016357422 M 313.8560180664062 -37.63199615478516 C 309.546630859375 -37.63199615478516 306.3040161132812 -36.57599639892578 304.1279907226562 -34.46399688720703 C 301.9520263671875 -32.35199737548828 300.7787170410156 -29.07735443115234 300.6080017089844 -24.6399974822998 L 310.3359985351562 -24.25599670410156 L 310.5920104980469 -26.94399642944336 C 310.6346435546875 -27.88264083862305 310.82666015625 -28.60799789428711 311.1679992675781 -29.11999893188477 C 311.5093688964844 -29.63199806213379 312.0853576660156 -29.88799667358398 312.89599609375 -29.88799667358398 C 313.7066650390625 -29.88799667358398 314.2720031738281 -29.61064147949219 314.5920104980469 -29.05599784851074 C 314.9119873046875 -28.5013542175293 315.072021484375 -27.69063949584961 315.072021484375 -26.62399673461914 L 315.072021484375 -22.9119987487793 C 311.8720092773438 -21.80264091491699 309.2586669921875 -20.73599815368652 307.2319946289062 -19.71199798583984 C 305.2053833007812 -18.68799781799316 303.4666442871094 -17.25864028930664 302.0159912109375 -15.42399787902832 C 300.5653686523438 -13.58935546875 299.8400268554688 -11.24264144897461 299.8400268554688 -8.383996963500977 C 299.8400268554688 -6.890640258789062 300.170654296875 -5.450641632080078 300.8320007324219 -4.063999176025391 C 301.4933471679688 -2.677356719970703 302.4746704101562 -1.546642303466797 303.7760009765625 -0.6719970703125 C 305.0773620605469 0.2026443481445312 306.6240234375 0.6400032043457031 308.416015625 0.6400032043457031 C 310.2506713867188 0.6400032043457031 311.765380859375 0.085357666015625 312.9600219726562 -1.023998260498047 C 314.1547241210938 -2.133354187011719 315.0079956054688 -3.541355133056641 315.52001953125 -5.247997283935547 C 315.6906433105469 -4.607997894287109 315.968017578125 -2.858642578125 316.3519897460938 3.814697265625e-06 L 325.6959838867188 3.814697265625e-06 C 325.2693481445312 -2.389354705810547 325.0559997558594 -5.461353302001953 325.0559997558594 -9.215997695922852 L 325.0559997558594 -26.49599838256836 C 325.0559997558594 -29.86664199829102 324.0960083007812 -32.56535339355469 322.176025390625 -34.59199905395508 C 320.2560119628906 -36.6186408996582 317.4827270507812 -37.63199615478516 313.8560180664062 -37.63199615478516 M 312.1279907226562 -6.399997711181641 C 311.2319946289062 -6.399997711181641 310.5280151367188 -6.762641906738281 310.0159912109375 -7.487998962402344 C 309.5040283203125 -8.213354110717773 309.2479858398438 -9.19464111328125 309.2479858398438 -10.43199729919434 C 309.2479858398438 -12.18135452270508 309.7386474609375 -13.66399765014648 310.7200012207031 -14.87999725341797 C 311.7013549804688 -16.09599876403809 313.1520080566406 -17.25864028930664 315.072021484375 -18.36799812316895 L 315.072021484375 -8.255998611450195 C 314.176025390625 -7.018642425537109 313.1946411132812 -6.399997711181641 312.1279907226562 -6.399997711181641 M 393.8560180664062 -37.63199615478516 C 390.8267211914062 -37.63199615478516 387.8613586425781 -36.18135452270508 384.9600219726562 -33.27999877929688 L 384.9600219726562 -36.99199676513672 L 374.5280151367188 -36.99199676513672 L 374.5280151367188 3.814697265625e-06 L 384.9600219726562 3.814697265625e-06 L 384.9600219726562 -28.92799758911133 C 386.2826538085938 -29.82399749755859 387.3706665039062 -30.27199745178223 388.2239990234375 -30.27199745178223 C 388.9920043945312 -30.27199745178223 389.5360107421875 -30.04799652099609 389.8560180664062 -29.59999847412109 C 390.176025390625 -29.15199661254883 390.3359985351562 -28.45864105224609 390.3359985351562 -27.51999664306641 L 390.3359985351562 3.814697265625e-06 L 400.7040100097656 3.814697265625e-06 L 400.7040100097656 -28.99199676513672 C 400.7040100097656 -31.55199813842773 400.1173706054688 -33.63199615478516 398.9440002441406 -35.23199844360352 C 397.7707214355469 -36.83199691772461 396.0746459960938 -37.63199615478516 393.8560180664062 -37.63199615478516 M 465.6640014648438 -37.63199615478516 C 461.6106567382812 -37.63199615478516 458.4426574707031 -36.60799789428711 456.1600036621094 -34.55999755859375 C 453.8772888183594 -32.51199722290039 452.7360229492188 -29.50399780273438 452.7360229492188 -25.53599739074707 L 452.7360229492188 -11.45599746704102 C 452.7360229492188 -7.487998962402344 453.8772888183594 -4.479999542236328 456.1600036621094 -2.431999206542969 C 458.4426574707031 -0.3839988708496094 461.6106567382812 0.6400032043457031 465.6640014648438 0.6400032043457031 C 469.71728515625 0.6400032043457031 472.89599609375 -0.3946418762207031 475.2000122070312 -2.463996887207031 C 477.5039978027344 -4.533355712890625 478.656005859375 -7.5306396484375 478.656005859375 -11.45599746704102 L 478.656005859375 -25.53599739074707 C 478.656005859375 -29.46135520935059 477.5039978027344 -32.45864105224609 475.2000122070312 -34.52799987792969 C 472.89599609375 -36.59735488891602 469.71728515625 -37.63199615478516 465.6640014648438 -37.63199615478516 M 465.7279968261719 -6.271999359130859 C 464.7466430664062 -6.271999359130859 464.0532836914062 -6.645355224609375 463.6480102539062 -7.391998291015625 C 463.2426452636719 -8.138641357421875 463.0399169921875 -9.258640289306641 463.0399169921875 -10.75199699401855 L 463.0399169921875 -26.23999786376953 C 463.0399169921875 -27.69063949584961 463.2426452636719 -28.79999923706055 463.6480102539062 -29.56799697875977 C 464.0532836914062 -30.33599853515625 464.7466430664062 -30.71999740600586 465.7279968261719 -30.71999740600586 C 466.7092895507812 -30.71999740600586 467.3919982910156 -30.34664154052734 467.7760009765625 -29.59999847412109 C 468.1600036621094 -28.85335540771484 468.3519897460938 -27.73335456848145 468.3519897460938 -26.23999786376953 L 468.3519897460938 -10.75199699401855 C 468.3519897460938 -9.258640289306641 468.1600036621094 -8.138641357421875 467.7760009765625 -7.391998291015625 C 467.3919982910156 -6.645355224609375 466.7092895507812 -6.271999359130859 465.7279968261719 -6.271999359130859 M 329.4080200195312 -36.99199676513672 L 329.4080200195312 3.814697265625e-06 L 339.8400268554688 3.814697265625e-06 L 339.8400268554688 -36.99199676513672 L 329.4080200195312 -36.99199676513672 M 480.447998046875 -36.99199676513672 L 485.8880004882812 3.814697265625e-06 L 494.7200012207031 3.814697265625e-06 L 498.3040161132812 -20.79999732971191 L 501.5039978027344 3.814697265625e-06 L 510.4639892578125 3.814697265625e-06 L 515.968017578125 -36.99199676513672 L 507.9039916992188 -36.99199676513672 L 504.7680053710938 -15.48799705505371 L 502.2720031738281 -36.99199676513672 L 494.7200012207031 -36.99199676513672 L 491.8399963378906 -15.99999809265137 L 489.1520080566406 -36.99199676513672 L 480.447998046875 -36.99199676513672 M 542.7840576171875 -7.615997314453125 L 542.7840576171875 1.152000427246094 L 552.0640258789062 1.152000427246094 L 552.0640258789062 -7.615997314453125 L 542.7840576171875 -7.615997314453125 M 176.89599609375 -56.54399871826172 C 180.0301513671875 -56.54399871826172 182.7984313964844 -56.14442443847656 185.1238708496094 -55.35635375976562 C 187.7153015136719 -54.47814178466797 189.8388671875 -53.10107040405273 191.4354248046875 -51.26349639892578 C 194.3368530273438 -47.92421340942383 195.8080139160156 -43.31642532348633 195.8080139160156 -37.56799697875977 L 195.8080139160156 -37.01475143432617 C 195.9121704101562 -37.12309646606445 196.0182800292969 -37.229736328125 196.1260681152344 -37.33435440063477 C 199.064208984375 -40.18606948852539 203.2745056152344 -41.63199615478516 208.6400146484375 -41.63199615478516 C 213.391357421875 -41.63199615478516 217.1675720214844 -40.18899917602539 219.8638000488281 -37.34299850463867 C 219.9534912109375 -37.24831771850586 220.0418090820312 -37.15248107910156 220.1285095214844 -37.05580902099609 C 220.16259765625 -39.23553085327148 221.9401550292969 -40.99199676513672 224.1280212402344 -40.99199676513672 L 234.3680114746094 -40.99199676513672 C 235.1767578125 -40.99199676513672 235.9293823242188 -40.75201797485352 236.5586547851562 -40.33933639526367 C 236.6651306152344 -40.3864860534668 236.7720642089844 -40.43239974975586 236.8794250488281 -40.47706985473633 C 238.8233642578125 -41.28592681884766 240.9284362792969 -41.69599914550781 243.1360168457031 -41.69599914550781 C 245.4454345703125 -41.69599914550781 247.5096435546875 -41.0829963684082 249.2713012695312 -39.87406921386719 C 249.5917358398438 -39.6541633605957 249.8977355957031 -39.41683197021484 250.1889343261719 -39.1624755859375 C 250.7998962402344 -39.55876541137695 251.4295654296875 -39.90932846069336 252.0763549804688 -40.21292495727539 C 254.1729431152344 -41.19699859619141 256.4620056152344 -41.69599914550781 258.8800048828125 -41.69599914550781 C 261.9779968261719 -41.69599914550781 264.6531982421875 -40.57000732421875 266.6661071777344 -38.4295654296875 C 267.2435607910156 -39.9284782409668 268.6975708007812 -40.99199676513672 270.3999938964844 -40.99199676513672 L 280.8320007324219 -40.99199676513672 C 281.6075744628906 -40.99199676513672 282.3316040039062 -40.77126693725586 282.9446716308594 -40.38920211791992 C 283.0526123046875 -40.43459320068359 283.1610717773438 -40.47875595092773 283.2699279785156 -40.52164077758789 C 285.1402893066406 -41.25842666625977 287.0116577148438 -41.63199615478516 288.8319396972656 -41.63199615478516 C 290.7992248535156 -41.63199615478516 292.5852966308594 -41.23564147949219 294.1404418945312 -40.45392608642578 C 295.7759399414062 -39.63178253173828 297.1321411132812 -38.40292739868164 298.1714477539062 -36.80142593383789 C 298.5883178710938 -36.15901565551758 298.9553833007812 -35.47427368164062 299.2724609375 -34.74821090698242 C 299.8653564453125 -35.70815658569336 300.555419921875 -36.57081604003906 301.3420715332031 -37.33435440063477 C 304.2802124023438 -40.18606948852539 308.4905090332031 -41.63199615478516 313.8560180664062 -41.63199615478516 C 318.6073608398438 -41.63199615478516 322.3835754394531 -40.18899917602539 325.0797729492188 -37.34299850463867 C 325.1915588378906 -37.22502899169922 325.3009033203125 -37.10557174682617 325.4080200195312 -36.9845085144043 L 325.4080200195312 -36.99199676513672 C 325.4080200195312 -38.24826049804688 325.9871826171875 -39.36930084228516 326.8930358886719 -40.10262680053711 C 325.9505004882812 -40.83440017700195 325.343994140625 -41.97834396362305 325.343994140625 -43.26399612426758 L 325.343994140625 -50.49599838256836 C 325.343994140625 -52.70513916015625 327.1348571777344 -54.49599838256836 329.343994140625 -54.49599838256836 L 339.8400268554688 -54.49599838256836 C 342.0491333007812 -54.49599838256836 343.8400268554688 -52.70513916015625 343.8400268554688 -50.49599838256836 L 343.8400268554688 -43.26399612426758 C 343.8400268554688 -41.9931755065918 343.2472534179688 -40.86069488525391 342.3233032226562 -40.12799835205078 C 343.2472534179688 -39.39529800415039 343.8400268554688 -38.26282119750977 343.8400268554688 -36.99199676513672 L 343.8400268554688 -36.5486946105957 C 344.0344848632812 -36.76209259033203 344.2357177734375 -36.96985626220703 344.4441528320312 -37.17242813110352 C 347.4886474609375 -40.13156890869141 351.73193359375 -41.63199615478516 357.0559997558594 -41.63199615478516 C 360.157958984375 -41.63199615478516 362.864501953125 -41.08197021484375 365.1467895507812 -39.99184036254883 C 366.1347045898438 -40.8276252746582 367.269775390625 -41.56040573120117 368.5457763671875 -42.18485641479492 C 368.55859375 -42.19113922119141 368.5714416503906 -42.19728469848633 368.5842895507812 -42.20342636108398 L 369.9282836914062 -42.84342575073242 C 370.483154296875 -43.10765838623047 371.0687255859375 -43.23287582397461 371.645263671875 -43.23287582397461 C 373.1251525878906 -43.23287582397461 374.5462036132812 -42.40790176391602 375.2399597167969 -40.99199676513672 L 384.9600219726562 -40.99199676513672 C 385.9228515625 -40.99199676513672 386.8061218261719 -40.65190505981445 387.4963989257812 -40.08514404296875 C 389.55810546875 -41.11379241943359 391.6834716796875 -41.63199615478516 393.8560180664062 -41.63199615478516 C 397.3593139648438 -41.63199615478516 400.234130859375 -40.23685455322266 402.1696472167969 -37.59735488891602 C 403.8512878417969 -35.30428314208984 404.7040100097656 -32.40899658203125 404.7040100097656 -28.99199676513672 L 404.7040100097656 3.814697265625e-06 C 404.7040100097656 2.209144592285156 402.9131469726562 4.000003814697266 400.7040100097656 4.000003814697266 L 390.3359985351562 4.000003814697266 C 389.3011474609375 4.000003814697266 388.3582153320312 3.607124328613281 387.6480102539062 2.962245941162109 C 386.9378051757812 3.607124328613281 385.994873046875 4.000003814697266 384.9600219726562 4.000003814697266 L 376.1067504882812 4.000003814697266 C 375.9240112304688 5.574043273925781 375.5281982421875 7.030338287353516 374.923583984375 8.348072052001953 C 374.0125732421875 10.33357238769531 372.6356506347656 12.00507354736328 370.8310852050781 13.31614685058594 C 367.6043090820312 15.66043090820312 362.8890991210938 16.80000305175781 356.416015625 16.80000305175781 C 351.4542846679688 16.80000305175781 347.566162109375 16.03600311279297 344.5295104980469 14.46443176269531 C 342.6907958984375 13.51285934448242 341.2574462890625 12.25235748291016 340.2691650390625 10.71792984008789 C 339.2412109375 9.121929168701172 338.7200012207031 7.281574249267578 338.7200012207031 5.248001098632812 C 338.7200012207031 4.824897766113281 338.7423095703125 4.408832550048828 338.7868347167969 4.000003814697266 L 329.4080200195312 4.000003814697266 C 328.7377319335938 4.000003814697266 328.1060485839844 3.835174560546875 327.5511169433594 3.543796539306641 C 326.9852294921875 3.84002685546875 326.3499145507812 4.000003814697266 325.6959838867188 4.000003814697266 L 316.3519897460938 4.000003814697266 C 315.4561157226562 4.000003814697266 314.6220092773438 3.703601837158203 313.9497375488281 3.198337554931641 C 312.3382568359375 4.146625518798828 310.4595642089844 4.640003204345703 308.416015625 4.640003204345703 C 305.8233642578125 4.640003204345703 303.5115051269531 3.969715118408203 301.5447387695312 2.647857666015625 C 300.2210388183594 1.758186340332031 299.113037109375 0.6723442077636719 298.2343444824219 -0.593963623046875 C 298.1427917480469 -0.4490242004394531 298.0487060546875 -0.3062667846679688 297.9522094726562 -0.1659278869628906 C 295.7906494140625 2.978145599365234 292.5926513671875 4.640003204345703 288.7040100097656 4.640003204345703 C 287.4049377441406 4.640003204345703 286.1127624511719 4.443813323974609 284.8320007324219 4.053379058837891 L 284.8320007324219 12.16000366210938 C 284.8320007324219 14.36914443969727 283.0411376953125 16.16000366210938 280.8320007324219 16.16000366210938 L 270.3999938964844 16.16000366210938 C 268.1908569335938 16.16000366210938 266.3999938964844 14.36914443969727 266.3999938964844 12.16000366210938 L 266.3999938964844 3.984722137451172 C 266.2839660644531 3.994842529296875 266.1666564941406 4.000003814697266 266.0480041503906 4.000003814697266 L 255.8080139160156 4.000003814697266 C 254.7097778320312 4.000003814697266 253.71484375 3.557346343994141 252.9920043945312 2.840797424316406 C 252.2691650390625 3.557346343994141 251.2742309570312 4.000003814697266 250.1759948730469 4.000003814697266 L 240.0639953613281 4.000003814697266 C 238.949462890625 4.000003814697266 237.9413452148438 3.544132232666016 237.2160034179688 2.808719635009766 C 236.4906616210938 3.544132232666016 235.4825439453125 4.000003814697266 234.3680114746094 4.000003814697266 L 224.1280212402344 4.000003814697266 C 223.4705505371094 4.000003814697266 222.8502502441406 3.841442108154297 222.3030700683594 3.560386657714844 C 221.7453308105469 3.845962524414062 221.12158203125 4.000003814697266 220.4800109863281 4.000003814697266 L 211.1360168457031 4.000003814697266 C 210.2401428222656 4.000003814697266 209.406005859375 3.703594207763672 208.7337341308594 3.198333740234375 C 207.1222229003906 4.146644592285156 205.2435607910156 4.640003204345703 203.2000122070312 4.640003204345703 C 200.6072998046875 4.640003204345703 198.2954406738281 3.969715118408203 196.3286437988281 2.647789001464844 C 194.6083374023438 1.491542816162109 193.2522583007812 0.00388336181640625 192.2904968261719 -1.780654907226562 C 192.0362243652344 -1.419315338134766 191.7685241699219 -1.070224761962891 191.4869384765625 -0.7328567504882812 C 188.4403686523438 2.917217254638672 183.5312805175781 4.768001556396484 176.89599609375 4.768001556396484 C 170.0132141113281 4.768001556396484 164.9241638183594 2.7655029296875 161.7703552246094 -1.183998107910156 C 160.2528686523438 -3.084281921386719 159.1111450195312 -5.39263916015625 158.3770141601562 -8.044925689697266 C 157.6915893554688 -10.52106857299805 157.343994140625 -13.36978340148926 157.343994140625 -16.51199722290039 L 157.343994140625 -35.19999694824219 C 157.343994140625 -38.39935302734375 157.6871643066406 -41.28485488891602 158.3638610839844 -43.77642822265625 C 159.0929260253906 -46.46071243286133 160.2304992675781 -48.77806854248047 161.7449951171875 -50.66435623168945 C 164.8776550292969 -54.5657844543457 169.9751586914062 -56.54399871826172 176.89599609375 -56.54399871826172 Z M 191.8080139160156 -29.08799743652344 L 180.6080017089844 -29.08799743652344 C 178.9562683105469 -29.08799743652344 177.5383911132812 -30.08913421630859 176.9280090332031 -31.51770782470703 L 176.9280090332031 -20.7062873840332 C 177.5383911132812 -22.13486289978027 178.9562683105469 -23.1359977722168 180.6080017089844 -23.1359977722168 L 191.6844787597656 -23.1359977722168 C 191.4771118164062 -23.64623069763184 191.3724060058594 -24.20762634277344 191.3949279785156 -24.7937126159668 C 191.4538269042969 -26.32458877563477 191.6205444335938 -27.75726127624512 191.8941040039062 -29.08890914916992 C 191.8655395507812 -29.08830833435059 191.8367309570312 -29.08799743652344 191.8080139160156 -29.08799743652344 Z M 196.2303466796875 -20.60381889343262 L 195.5188903808594 -20.63190269470215 C 195.5864868164062 -20.46437454223633 195.6431274414062 -20.29107475280762 195.6877746582031 -20.11319160461426 C 195.8658752441406 -20.28037071228027 196.0467529296875 -20.44393920898438 196.2303466796875 -20.60381889343262 Z M 301.4463500976562 -20.60382080078125 L 300.7680053710938 -20.63059616088867 L 300.7680053710938 -19.98451042175293 C 300.9896850585938 -20.19657516479492 301.2160034179688 -20.40322875976562 301.4463500976562 -20.60382080078125 Z M 370.5280151367188 -9.424699783325195 L 370.5280151367188 -13.78312873840332 C 370.1881408691406 -13.33810806274414 369.8218994140625 -12.9133472442627 369.4295043945312 -12.5092830657959 C 368.834716796875 -11.89682769775391 368.1886596679688 -11.34561157226562 367.49267578125 -10.85623741149902 C 368.6046752929688 -10.48146438598633 369.6173400878906 -10.00390434265137 370.5280151367188 -9.424699783325195 Z M 0.89599609375 -55.83999633789062 L 11.7119140625 -55.83999633789062 C 13.3394775390625 -55.83999633789062 14.80487060546875 -54.85378265380859 15.4176025390625 -53.34599685668945 L 17.01123046875 -49.42456817626953 L 18.216064453125 -53.08928298950195 C 18.7557373046875 -54.73064041137695 20.2882080078125 -55.83999633789062 22.0159912109375 -55.83999633789062 L 31.552001953125 -55.83999633789062 C 32.15826416015625 -55.83999633789062 32.74713134765625 -55.70253753662109 33.2789306640625 -55.447998046875 C 33.80224609375 -55.69923782348633 34.38873291015625 -55.83999633789062 35.00799560546875 -55.83999633789062 L 44.16000366210938 -55.83999633789062 C 46.369140625 -55.83999633789062 48.16000366210938 -54.04914093017578 48.16000366210938 -51.83999633789062 C 48.16000366210938 -49.88799667358398 48.11630249023438 -47.45706939697266 48.0301513671875 -44.61478424072266 C 48.03009033203125 -44.61128234863281 48.02993774414062 -44.60771179199219 48.02987670898438 -44.60421371459961 C 47.98703002929688 -43.30488586425781 47.89288330078125 -42.10221099853516 47.74639892578125 -40.99199676513672 L 57.21600341796875 -40.99199676513672 C 58.02474975585938 -40.99199676513672 58.77737426757812 -40.75201797485352 59.40664672851562 -40.33933639526367 C 59.51315307617188 -40.3864860534668 59.62005615234375 -40.43239974975586 59.72744750976562 -40.47706985473633 C 61.67144775390625 -41.28592681884766 63.77642822265625 -41.69599914550781 65.9840087890625 -41.69599914550781 C 68.29342651367188 -41.69599914550781 70.35763549804688 -41.0829963684082 72.11929321289062 -39.87406921386719 C 72.43972778320312 -39.6541633605957 72.7457275390625 -39.41683197021484 73.03692626953125 -39.1624755859375 C 73.64788818359375 -39.55876541137695 74.27755737304688 -39.90932846069336 74.92437744140625 -40.21292495727539 C 77.0208740234375 -41.19699859619141 79.3099365234375 -41.69599914550781 81.72799682617188 -41.69599914550781 C 85.10800170898438 -41.69599914550781 87.98471069335938 -40.355712890625 90.04714965820312 -37.81992721557617 C 90.7637939453125 -36.93881607055664 91.34646606445312 -35.95256423950195 91.79379272460938 -34.86568832397461 C 92.3699951171875 -35.77850723266602 93.0357666015625 -36.60219955444336 93.79006958007812 -37.33435440063477 C 96.72821044921875 -40.18606948852539 100.9385070800781 -41.63199615478516 106.3040161132812 -41.63199615478516 C 111.0553588867188 -41.63199615478516 114.8315734863281 -40.18899917602539 117.5278015136719 -37.34299850463867 C 118.1329650878906 -36.70420074462891 118.6695861816406 -36.02010345458984 119.1374816894531 -35.29157257080078 C 120.5397033691406 -37.23348999023438 122.3792419433594 -38.78179168701172 124.6112060546875 -39.89771270751953 C 126.9128723144531 -41.04849624633789 129.4095764160156 -41.63199615478516 132.0320129394531 -41.63199615478516 C 135.9877319335938 -41.63199615478516 139.3867797851562 -40.50271224975586 142.1346435546875 -38.27542495727539 C 144.8108520507812 -36.10635375976562 146.7136535644531 -33.04164123535156 147.7900695800781 -29.16656875610352 C 148.3163757324219 -27.27192687988281 147.3875122070312 -25.2756404876709 145.5990905761719 -24.45806884765625 L 141.0942687988281 -22.39872360229492 C 143.1666259765625 -20.60010719299316 144.7759704589844 -18.91321754455566 145.9997863769531 -17.2587833404541 C 147.6667785644531 -15.00506973266602 148.5119934082031 -12.36371231079102 148.5119934082031 -9.407997131347656 C 148.5119934082031 -6.500213623046875 147.7462768554688 -3.916282653808594 146.2361450195312 -1.727996826171875 C 144.77978515625 0.3820724487304688 142.8317260742188 2.004573822021484 140.4460144042969 3.0943603515625 C 138.2008666992188 4.120002746582031 135.757568359375 4.640003204345703 133.1840209960938 4.640003204345703 C 129.0939331054688 4.640003204345703 125.5892944335938 3.662574768066406 122.767578125 1.734786987304688 C 122.4978942871094 1.550559997558594 122.2335205078125 1.356533050537109 121.9743041992188 1.152629852294922 C 121.820068359375 1.665206909179688 121.5627746582031 2.147598266601562 121.2109375 2.567859649658203 C 120.450927734375 3.475574493408203 119.3278503417969 4.000003814697266 118.1440124511719 4.000003814697266 L 108.8000183105469 4.000003814697266 C 107.9041137695312 4.000003814697266 107.0699462890625 3.703567504882812 106.397705078125 3.19830322265625 C 104.7861328125 4.146617889404297 102.9074401855469 4.640003204345703 100.864013671875 4.640003204345703 C 98.27130126953125 4.640003204345703 95.95944213867188 3.969715118408203 93.99264526367188 2.647789001464844 C 93.49160766601562 2.311027526855469 93.02145385742188 1.946136474609375 92.58291625976562 1.553989410400391 C 91.9764404296875 2.991329193115234 90.5540771484375 4.000003814697266 88.89599609375 4.000003814697266 L 78.656005859375 4.000003814697266 C 77.55776977539062 4.000003814697266 76.5628662109375 3.557346343994141 75.83999633789062 2.840797424316406 C 75.11715698242188 3.557346343994141 74.12225341796875 4.000003814697266 73.02401733398438 4.000003814697266 L 62.91201782226562 4.000003814697266 C 61.79745483398438 4.000003814697266 60.78936767578125 3.544132232666016 60.06399536132812 2.808719635009766 C 59.33865356445312 3.544132232666016 58.33056640625 4.000003814697266 57.21600341796875 4.000003814697266 L 46.97601318359375 4.000003814697266 C 44.76687622070312 4.000003814697266 42.97601318359375 2.209144592285156 42.97601318359375 3.814697265625e-06 L 42.97601318359375 -31.5286808013916 C 41.44830322265625 -30.49353981018066 39.315185546875 -29.70938491821289 36.34857177734375 -29.66442680358887 C 36.32818603515625 -29.66411781311035 36.3077392578125 -29.66396331787109 36.287353515625 -29.66396331787109 C 34.43426513671875 -29.66396331787109 32.8199462890625 -30.93879699707031 32.39434814453125 -32.74785614013672 L 31.6263427734375 -36.01185607910156 C 31.3509521484375 -37.18242645263672 31.61669921875 -38.4147834777832 32.3502197265625 -39.36771392822266 C 32.40185546875 -39.43477630615234 32.455322265625 -39.49990844726562 32.51068115234375 -39.56314849853516 C 32.267578125 -39.75769424438477 32.04779052734375 -39.97991180419922 31.8558349609375 -40.22521209716797 L 26.72894287109375 -25.02510070800781 L 36.281982421875 -1.505283355712891 C 36.7828369140625 -0.2720680236816406 36.63751220703125 1.129573822021484 35.89422607421875 2.233715057373047 C 35.15093994140625 3.337932586669922 33.9071044921875 4.000003814697266 32.57598876953125 4.000003814697266 L 21.82391357421875 4.000003814697266 C 20.19970703125 4.000003814697266 18.7366943359375 3.017860412597656 18.1217041015625 1.514503479003906 L 15.7288818359375 -4.334587097167969 L 13.68414306640625 1.353218078613281 C 13.11328125 2.941146850585938 11.60736083984375 4.000003814697266 9.91998291015625 4.000003814697266 L 0.447998046875 4.000003814697266 C -0.8546142578125 4.000003814697266 -2.07562255859375 3.365715026855469 -2.82464599609375 2.299930572509766 C -3.5736083984375 1.234146118164062 -3.75677490234375 -0.1295700073242188 -3.3154296875 -1.355140686035156 L 6.2169189453125 -27.82732772827148 L -2.81658935546875 -50.35099792480469 C -3.31085205078125 -51.58356857299805 -3.1612548828125 -52.98099899291992 -2.41729736328125 -54.08099746704102 C -1.67327880859375 -55.18092727661133 -0.43194580078125 -55.83999633789062 0.89599609375 -55.83999633789062 Z M 93.89434814453125 -20.60382080078125 L 92.89822387695312 -20.64314079284668 C 92.89755249023438 -20.64316749572754 92.89666748046875 -20.64320373535156 92.89599609375 -20.64323234558105 L 92.89599609375 -19.67136573791504 C 93.21914672851562 -19.99480628967285 93.55197143554688 -20.30566596984863 93.89434814453125 -20.60382080078125 Z M 123.4318542480469 -14.61208915710449 C 122.7282104492188 -15.23955726623535 122.0864562988281 -15.8514232635498 121.5039978027344 -16.45048332214355 L 121.5039978027344 -13.76105308532715 L 123.4318542480469 -14.61208915710449 Z M 420.0960083007812 -55.83999633789062 L 428.1600036621094 -55.83999633789062 C 429.7637329101562 -55.83999633789062 431.2124328613281 -54.88214111328125 431.8405151367188 -53.40657043457031 L 434.7839965820312 -46.49111938476562 L 434.7839965820312 -51.83999633789062 C 434.7839965820312 -54.04914093017578 436.5748596191406 -55.83999633789062 438.7839965820312 -55.83999633789062 L 448.2560119628906 -55.83999633789062 C 450.4651489257812 -55.83999633789062 452.2560119628906 -54.04914093017578 452.2560119628906 -51.83999633789062 L 452.2560119628906 -36.27531814575195 C 452.6372985839844 -36.72125244140625 453.0485229492188 -37.14235687255859 453.4888000488281 -37.537353515625 C 456.51708984375 -40.25435638427734 460.6134338378906 -41.63199615478516 465.6640014648438 -41.63199615478516 C 470.1039733886719 -41.63199615478516 473.814697265625 -40.55906677246094 476.718994140625 -38.43922805786133 C 476.8826904296875 -38.86101531982422 477.1184692382812 -39.25654220581055 477.4207763671875 -39.6065673828125 C 478.1806640625 -40.48628234863281 479.2855834960938 -40.99199676513672 480.447998046875 -40.99199676513672 L 489.1520080566406 -40.99199676513672 C 490.2267761230469 -40.99199676513672 491.2120971679688 -40.56564331054688 491.93603515625 -39.86419677734375 C 492.6601867675781 -40.5657958984375 493.6458129882812 -40.99199676513672 494.7200012207031 -40.99199676513672 L 502.2720031738281 -40.99199676513672 C 503.3633422851562 -40.99199676513672 504.3616333007812 -40.55252075195312 505.0880126953125 -39.83284378051758 C 505.8153076171875 -40.55343627929688 506.8143310546875 -40.99199676513672 507.9039916992188 -40.99199676513672 L 515.968017578125 -40.99199676513672 C 517.1316528320312 -40.99199676513672 518.237548828125 -40.48528289794922 518.9974365234375 -39.60399627685547 C 519.75732421875 -38.72271347045898 520.095703125 -37.55428314208984 519.9244384765625 -36.40335464477539 L 514.42041015625 0.5886459350585938 C 514.1287841796875 2.548858642578125 512.44580078125 4.000003814697266 510.4639892578125 4.000003814697266 L 501.5039978027344 4.000003814697266 C 500.08837890625 4.000003814697266 498.8245544433594 3.259418487548828 498.1119995117188 2.120906829833984 C 497.3987731933594 3.260616302490234 496.1339721679688 4.000003814697266 494.7200012207031 4.000003814697266 L 485.8880004882812 4.000003814697266 C 483.9036560058594 4.000003814697266 482.2192993164062 2.545215606689453 481.9305725097656 0.582000732421875 L 481.2373046875 -4.132217407226562 C 480.4405212402344 -2.339462280273438 479.3110656738281 -0.7798690795898438 477.8728637695312 0.511932373046875 C 474.822998046875 3.251071929931641 470.7153625488281 4.640003204345703 465.6640014648438 4.640003204345703 C 460.6134338378906 4.640003204345703 456.51708984375 3.262359619140625 453.4887084960938 0.5452880859375 C 453.0484924316406 0.1503067016601562 452.6372985839844 -0.2707481384277344 452.2560119628906 -0.7166709899902344 L 452.2560119628906 3.814697265625e-06 C 452.2560119628906 2.209144592285156 450.4651489257812 4.000003814697266 448.2560119628906 4.000003814697266 L 440.5120239257812 4.000003814697266 C 438.870361328125 4.000003814697266 437.3954467773438 2.997001647949219 436.7919921875 1.470287322998047 L 433.8880004882812 -5.877182006835938 L 433.8880004882812 3.814697265625e-06 C 433.8880004882812 2.209144592285156 432.09716796875 4.000003814697266 429.8880004882812 4.000003814697266 L 420.0960083007812 4.000003814697266 C 417.8868408203125 4.000003814697266 416.0960083007812 2.209144592285156 416.0960083007812 3.814697265625e-06 L 416.0960083007812 -51.83999633789062 C 416.0960083007812 -54.04914093017578 417.8868408203125 -55.83999633789062 420.0960083007812 -55.83999633789062 Z M 542.1439819335938 -53.72799682617188 L 552.6400146484375 -53.72799682617188 C 553.7777709960938 -53.72799682617188 554.8616943359375 -53.24349975585938 555.6204833984375 -52.39571380615234 C 556.3792724609375 -51.54792785644531 556.7412109375 -50.41706848144531 556.615478515625 -49.28628540039062 C 556.4427490234375 -47.73130416870117 556.18798828125 -44.48661041259766 556.0601806640625 -41.74383926391602 L 555.1651611328125 -20.00713729858398 C 555.0400390625 -16.37938499450684 555.0399780273438 -16.37790870666504 555.0399780273438 -15.55199813842773 C 555.0399780273438 -14.82428359985352 555.0399780273438 -14.34349822998047 555.1481323242188 -13.26199722290039 C 555.2369384765625 -12.37366676330566 555.025634765625 -11.48834991455078 554.5591430664062 -10.74259185791016 C 555.4763793945312 -10.00963020324707 556.0640258789062 -8.881427764892578 556.0640258789062 -7.615997314453125 L 556.0640258789062 1.152000427246094 C 556.0640258789062 3.36114501953125 554.2731323242188 5.152000427246094 552.0640258789062 5.152000427246094 L 542.7840576171875 5.152000427246094 C 540.574951171875 5.152000427246094 538.7840576171875 3.36114501953125 538.7840576171875 1.152000427246094 L 538.7840576171875 -7.615997314453125 C 538.7840576171875 -8.881427764892578 539.3717041015625 -10.00961685180664 540.2889404296875 -10.74257850646973 C 539.860107421875 -11.42815208435059 539.6455688476562 -12.2336540222168 539.6845703125 -13.05406951904297 C 539.7091674804688 -13.57049751281738 539.733154296875 -13.97764015197754 539.7542724609375 -14.3369255065918 C 539.78662109375 -14.885498046875 539.8079833984375 -15.24792671203613 539.8079833984375 -15.61599731445312 C 539.8079833984375 -16.22006988525391 539.8079833984375 -16.22006988525391 539.6210327148438 -19.96021270751953 C 539.6204223632812 -19.97199821472168 539.619873046875 -19.98371124267578 539.619384765625 -19.99542617797852 L 538.723388671875 -41.75542449951172 C 538.5667724609375 -45.19400787353516 538.3754272460938 -47.82406616210938 538.1842041015625 -49.16228485107422 C 538.0202026367188 -50.31021118164062 538.3624267578125 -51.47278213500977 539.1221923828125 -52.34878540039062 C 539.8819580078125 -53.22478485107422 540.9844360351562 -53.72799682617188 542.1439819335938 -53.72799682617188 Z" stroke="none" fill="#fff"/>
  </g>
</svg>
